<?xml version="1.0" standalone="no"?>
<!DOCTYPE svg PUBLIC "-//W3C//DTD SVG 20010904//EN"
 "http://www.w3.org/TR/2001/REC-SVG-20010904/DTD/svg10.dtd">
<svg version="1.0" xmlns="http://www.w3.org/2000/svg"
 width="300.000000pt" height="300.000000pt" viewBox="0 0 300.000000 300.000000"
 preserveAspectRatio="xMidYMid meet">
<metadata>
Created by potrace 1.10, written by Peter Selinger 2001-2011
</metadata>
<g transform="translate(0.000000,300.000000) scale(0.100000,-0.100000)"
fill="#ffffff" stroke="none">
<path d="M809 1546 c0 -1 -1 -18 -2 -39 -2 -29 2 -37 16 -37 11 0 17 8 18 23
l0 22 11 -22 c6 -13 19 -23 28 -23 9 0 22 10 28 23 l11 22 0 -22 c1 -36 31
-29 31 7 0 39 -2 44 -18 47 -8 1 -21 -12 -30 -28 -10 -16 -19 -29 -22 -29 -3
0 -12 13 -21 28 -9 16 -24 29 -33 29 -9 0 -16 -1 -17 -1z"/>
<path d="M992 1511 c-28 -50 -28 -51 8 -38 22 8 38 8 60 0 17 -6 30 -8 30 -4
0 15 -52 81 -64 81 -7 0 -22 -17 -34 -39z m43 -1 c3 -5 1 -10 -4 -10 -6 0 -11
5 -11 10 0 6 2 10 4 10 3 0 8 -4 11 -10z"/>
<path d="M1100 1509 l0 -40 53 3 c46 3 52 6 55 27 5 32 -6 40 -61 45 l-47 5 0
-40z m64 15 c25 -10 19 -34 -9 -34 -24 0 -34 18 -18 33 8 8 8 8 27 1z"/>
<path d="M1230 1509 c0 -37 1 -37 45 -41 33 -2 45 1 45 10 0 10 -8 12 -30 7
-18 -4 -30 -3 -30 4 0 5 12 12 28 14 l27 4 -27 2 c-38 2 -36 21 2 21 17 0 30
5 30 10 0 6 -20 9 -45 8 -45 -3 -45 -3 -45 -39z"/>
<path d="M1337 1543 c-4 -3 -7 -21 -7 -40 0 -26 4 -33 20 -33 17 0 20 7 20 40
0 38 -14 52 -33 33z"/>
<path d="M1389 1546 c0 -1 -1 -18 -3 -38 -2 -31 0 -38 15 -38 9 0 19 6 22 13
3 10 9 10 26 0 11 -7 25 -13 29 -13 14 0 12 61 -2 66 -9 4 -84 12 -87 10z m66
-26 c4 -6 -5 -10 -20 -10 -15 0 -24 4 -20 10 3 6 12 10 20 10 8 0 17 -4 20
-10z"/>
<path d="M1525 1513 c-32 -48 -32 -54 5 -40 22 8 38 8 60 0 17 -6 30 -8 30 -4
0 12 -51 81 -60 81 -5 0 -21 -17 -35 -37z m45 -3 c0 -5 -4 -10 -10 -10 -5 0
-10 5 -10 10 0 6 5 10 10 10 6 0 10 -4 10 -10z"/>
<path d="M1630 1544 c0 -4 9 -22 21 -40 27 -44 51 -43 72 1 21 43 21 45 3 45
-7 0 -20 -14 -27 -32 l-13 -32 -13 32 c-7 18 -20 32 -28 32 -8 0 -15 -3 -15
-6z"/>
<path d="M1754 1541 c-2 -2 -4 -19 -4 -38 0 -33 0 -33 50 -33 29 0 50 5 50 11
0 7 -11 8 -29 4 -17 -3 -32 -2 -36 4 -4 7 6 12 27 12 l33 2 -35 7 c-28 5 -31
8 -17 14 9 5 24 6 32 2 9 -3 15 0 15 9 0 11 -11 14 -41 12 -22 -1 -42 -4 -45
-6z"/>
<path d="M1860 1509 c0 -28 4 -39 15 -39 8 0 15 5 15 10 0 6 9 10 20 10 11 0
20 -4 20 -10 0 -5 10 -10 21 -10 17 0 19 3 10 13 -8 10 -7 17 1 25 18 18 -2
31 -55 36 l-47 5 0 -40z m75 11 c4 -6 -5 -10 -19 -10 -14 0 -26 5 -26 10 0 6
9 10 19 10 11 0 23 -4 26 -10z"/>
<path d="M1980 1509 l0 -40 53 3 c46 3 52 6 55 27 5 32 -6 40 -61 45 l-47 5 0
-40z m64 15 c25 -10 19 -34 -9 -34 -18 0 -25 5 -25 20 0 21 8 24 34 14z"/>
<path d="M2109 1545 c0 0 -1 -17 -2 -37 l-2 -36 48 -4 c34 -2 47 1 47 10 0 10
-8 12 -29 7 -17 -3 -32 -2 -36 4 -4 7 6 12 27 12 30 2 31 2 6 6 -35 5 -37 26
-3 21 13 -2 24 2 24 7 1 6 -17 10 -39 10 -22 0 -40 0 -41 0z"/>
</g>
</svg>
