 <svg  version="1.0" xmlns="http://www.w3.org/2000/svg"  width="900.000000pt" height="117.000000pt" viewBox="0 0 900.000000 117.000000"  preserveAspectRatio="xMidYMid meet">  <g transform="translate(0.000000,117.000000) scale(0.100000,-0.100000)" fill="#21370d" stroke="none"> <path d="M62 868 c-14 -18 -14 -786 0 -794 6 -4 51 -7 101 -7 64 1 92 5 98 14 5 8 6 82 3 165 -9 196 0 215 50 112 20 -41 36 -77 36 -81 0 -7 48 -115 78 -175 19 -37 43 -55 65 -46 8 3 33 51 57 107 23 56 48 116 55 132 7 17 22 52 33 80 36 88 42 70 42 -119 0 -96 4 -177 8 -180 18 -11 203 -9 214 2 8 8 10 51 7 134 -5 154 -5 343 0 516 3 93 0 136 -7 141 -17 10 -191 4 -205 -8 -14 -11 -22 -26 -126 -244 -73 -151 -83 -166 -99 -156 -10 6 -28 35 -41 63 -25 56 -58 127 -117 251 -20 44 -45 85 -53 92 -22 17 -185 17 -199 1z"/> <path d="M1272 872 c-7 -5 -16 -22 -21 -38 -5 -16 -19 -54 -31 -84 -12 -30 -25 -66 -30 -80 -5 -14 -18 -50 -30 -80 -12 -30 -25 -66 -30 -80 -5 -14 -18 -50 -30 -80 -12 -30 -24 -66 -27 -80 -3 -14 -9 -29 -13 -35 -4 -5 -13 -26 -18 -45 -6 -19 -20 -60 -32 -90 -45 -115 -42 -120 79 -120 99 0 131 14 131 58 0 15 7 38 16 50 14 21 22 22 138 22 134 0 139 -2 150 -56 14 -62 36 -74 141 -74 113 0 133 11 111 63 -8 18 -21 50 -29 72 -8 22 -23 60 -32 85 -9 25 -24 63 -32 85 -8 22 -21 54 -28 70 -7 17 -19 48 -28 70 -23 60 -57 147 -66 170 -5 11 -24 56 -42 100 -18 44 -39 86 -48 93 -17 14 -178 17 -199 4z m138 -350 c11 -30 22 -73 26 -97 6 -41 4 -45 -18 -50 -14 -4 -42 -5 -64 -3 -49 4 -53 22 -24 107 23 70 41 102 53 98 5 -1 17 -26 27 -55z"/> <path d="M1908 873 c-20 -2 -41 -9 -46 -16 -5 -7 -5 -93 0 -211 4 -109 4 -277 0 -375 -5 -97 -7 -181 -5 -187 6 -18 39 -21 216 -23 244 -2 333 23 423 121 22 24 54 71 70 103 27 57 29 67 29 185 0 122 -1 126 -34 193 -43 85 -109 147 -188 175 -89 32 -323 50 -465 35z m343 -182 c58 -26 95 -66 119 -130 48 -125 -4 -263 -118 -312 -59 -26 -126 -25 -152 1 -19 19 -20 33 -20 220 0 187 1 201 20 220 26 26 93 26 151 1z"/> <path d="M2702 863 c-5 -10 -5 -70 0 -138 9 -114 4 -458 -7 -575 -4 -30 -2 -60 2 -67 6 -8 85 -13 283 -15 l275 -3 17 65 c10 36 17 79 16 95 l-3 30 -152 -4 c-131 -3 -156 -1 -178 13 -23 15 -26 23 -23 64 l3 47 148 3 c81 1 147 6 147 11 0 4 5 45 11 90 6 46 7 86 3 91 -5 5 -67 5 -139 0 -159 -10 -175 -4 -175 65 0 40 3 45 27 51 14 4 88 4 164 1 76 -4 140 -3 142 1 2 4 1 44 -2 90 -4 57 -11 86 -21 92 -8 6 -130 10 -272 10 -235 0 -258 -2 -266 -17z"/> <path d="M3387 872 c-9 -13 -12 -777 -4 -790 10 -14 194 -17 216 -3 12 8 13 44 7 219 -3 120 -2 281 4 376 8 118 8 172 0 186 -10 18 -21 20 -115 20 -57 0 -106 -3 -108 -8z"/> <path d="M3820 873 c-36 -2 -68 -8 -73 -12 -13 -13 -14 -771 -2 -781 7 -5 53 -10 104 -11 127 -2 126 -2 111 140 -15 129 -10 141 51 141 34 0 42 -5 64 -40 14 -22 25 -44 25 -49 0 -6 6 -25 14 -43 8 -18 23 -55 33 -81 10 -27 26 -53 37 -59 19 -10 191 -12 207 -2 19 11 17 18 -87 240 -31 66 -30 74 10 106 106 84 116 276 20 371 -78 78 -201 97 -514 80z m287 -182 c49 -23 63 -45 63 -101 0 -32 -6 -47 -27 -66 -25 -23 -33 -25 -107 -22 l-81 3 -3 86 c-2 69 1 90 13 103 22 22 90 20 142 -3z"/> <path d="M4723 861 c-7 -11 -22 -49 -34 -83 -11 -35 -27 -75 -35 -90 -8 -14 -14 -35 -14 -46 0 -12 -4 -23 -9 -27 -5 -3 -13 -20 -17 -38 -3 -17 -12 -45 -19 -62 -13 -29 -30 -74 -59 -152 -45 -121 -76 -202 -92 -240 -12 -30 -12 -33 9 -48 24 -17 171 -21 196 -6 7 5 23 33 35 62 l21 54 130 0 130 0 21 -54 c12 -29 28 -57 35 -62 8 -5 55 -9 105 -9 115 0 131 13 100 83 -7 18 -20 50 -29 72 -8 22 -23 60 -32 85 -9 25 -23 61 -30 80 -23 63 -47 124 -60 155 -7 17 -20 50 -30 75 -10 25 -23 59 -30 75 -7 17 -28 66 -47 110 l-34 80 -100 3 c-90 2 -100 1 -111 -17z m136 -313 c9 -24 23 -69 31 -101 16 -70 11 -77 -61 -77 -63 0 -78 18 -56 66 10 19 17 41 17 48 0 16 39 106 46 106 3 0 13 -19 23 -42z"/> <path d="M5316 868 c-14 -8 -16 -31 -16 -161 l0 -152 116 -232 c63 -127 122 -237 130 -244 9 -7 47 -11 101 -10 69 1 92 5 105 19 19 20 115 200 208 392 29 59 33 78 42 213 12 189 14 187 -110 180 -48 -3 -94 -9 -102 -14 -12 -6 -14 -30 -11 -138 l3 -130 -61 -126 c-34 -69 -68 -125 -74 -125 -7 0 -35 44 -63 98 l-49 97 0 157 c0 92 -4 161 -10 166 -14 13 -188 21 -209 10z"/> <path d="M6102 863 c-6 -11 -6 -70 0 -148 9 -126 5 -417 -8 -561 -6 -60 -4 -72 10 -77 9 -4 135 -9 280 -12 l263 -6 13 32 c8 17 14 61 14 98 l1 66 -152 -4 -151 -4 -26 26 c-25 25 -32 59 -20 91 5 14 28 16 149 16 79 0 146 4 149 9 10 16 26 154 20 173 -6 19 -37 19 -222 3 -46 -5 -56 -2 -77 19 -29 29 -32 67 -8 92 15 15 34 16 163 11 80 -3 151 -3 157 1 13 8 -3 158 -20 180 -7 9 -73 12 -268 12 -236 0 -259 -2 -267 -17z"/> <path d="M6870 873 c-30 -2 -65 -5 -78 -8 l-22 -5 2 -393 3 -392 111 -3 c99 -2 112 -1 118 15 4 10 2 66 -5 125 -14 128 -9 141 55 136 38 -3 42 -6 68 -58 15 -30 32 -68 37 -85 43 -136 42 -135 168 -135 121 0 127 5 93 77 -45 96 -93 198 -102 216 -7 14 -1 26 29 55 71 67 83 97 83 203 0 100 -5 113 -59 172 -70 76 -206 97 -501 80z m270 -179 c71 -29 92 -107 44 -164 -26 -30 -28 -31 -108 -28 l-81 3 -3 86 c-2 69 1 90 13 103 21 21 83 21 135 0z"/> <path d="M7575 873 c-16 -3 -34 -8 -40 -13 -6 -5 -10 -149 -10 -396 l0 -388 26 -6 c50 -14 342 -11 414 4 89 18 129 38 187 98 190 195 143 548 -87 657 -78 37 -362 62 -490 44z m343 -183 c137 -59 177 -259 77 -385 -51 -63 -170 -96 -221 -60 -18 12 -22 29 -28 120 -9 137 2 312 21 331 21 20 97 17 151 -6z"/> <path d="M8370 873 c-1 -5 -2 -186 -3 -403 l-2 -395 274 -8 c150 -5 277 -5 281 0 12 12 34 157 27 176 -5 15 -23 16 -149 11 -93 -4 -153 -2 -170 5 -26 10 -28 15 -28 65 l0 55 148 3 147 3 8 89 c5 48 5 92 0 96 -4 5 -64 5 -133 0 -156 -9 -173 -3 -168 68 l3 47 160 0 160 0 3 74 c2 53 -1 79 -13 97 l-15 24 -265 0 c-146 0 -265 -3 -265 -7z"/> </g> </svg> 