 <svg  version="1.0" xmlns="http://www.w3.org/2000/svg"  width="300.000000pt" height="39.000000pt" viewBox="0 0 300.000000 39.000000"  preserveAspectRatio="xMidYMid meet">  <g transform="translate(0.000000,39.000000) scale(0.100000,-0.100000)" fill="#317500" stroke="none"> <path d="M27 293 c-4 -3 -7 -64 -7 -135 l0 -128 35 0 35 0 1 63 1 62 30 -68 c17 -37 36 -66 42 -64 6 2 22 32 36 68 l25 64 3 -62 3 -63 38 0 38 0 -1 132 -1 132 -34 0 c-32 0 -36 -4 -71 -75 l-38 -74 -35 78 c-33 70 -38 77 -65 77 -16 0 -32 -3 -35 -7z"/> <path d="M426 292 c-17 -27 -95 -255 -91 -263 4 -5 20 -9 36 -9 22 0 32 6 39 25 14 36 80 36 104 0 11 -17 26 -25 46 -25 16 0 31 3 34 8 4 7 -69 206 -93 250 -12 22 -64 32 -75 14z m53 -144 c1 -12 -6 -18 -19 -18 -23 0 -24 8 -9 47 10 26 12 27 19 8 5 -11 9 -28 9 -37z"/> <path d="M639 294 c-14 -4 -16 -23 -16 -134 l0 -130 34 -6 c46 -9 130 3 160 23 73 48 70 188 -5 227 -28 15 -145 28 -173 20z m136 -79 c16 -15 25 -36 25 -55 0 -38 -39 -80 -75 -80 -25 0 -25 1 -25 80 0 79 0 80 25 80 14 0 37 -11 50 -25z"/> <path d="M909 298 c-1 -2 -2 -62 -3 -134 l-3 -131 90 -7 c49 -4 91 -5 93 -3 2 2 7 18 10 35 l7 32 -62 0 c-54 0 -61 2 -61 20 0 17 7 20 50 20 43 0 50 3 52 20 0 11 1 25 2 32 1 7 -17 12 -49 12 -39 1 -50 5 -53 19 -3 15 5 17 53 17 l56 0 -3 33 -3 32 -87 3 c-49 1 -88 1 -89 0z"/> <path d="M1130 166 l0 -136 39 0 38 0 -1 133 -1 132 -37 3 -38 3 0 -135z"/> <path d="M1278 293 l-28 -4 0 -130 0 -129 40 0 40 0 -7 45 c-5 41 -4 45 15 45 15 0 25 -12 38 -45 16 -43 19 -45 55 -45 22 0 39 2 39 4 0 2 -9 24 -21 50 l-20 46 20 27 c12 14 21 38 21 52 0 70 -74 102 -192 84z m100 -62 c8 -4 12 -19 10 -32 -2 -19 -10 -25 -35 -27 -32 -3 -33 -2 -33 32 0 31 3 36 23 36 12 0 28 -4 35 -9z"/> <path d="M1575 288 c-73 -197 -92 -254 -88 -260 2 -5 18 -8 34 -8 22 0 32 7 41 25 9 21 18 25 53 25 35 0 44 -4 53 -25 9 -18 19 -25 41 -25 16 0 32 4 36 9 3 6 -18 69 -46 140 l-50 131 -35 0 c-19 0 -37 -6 -39 -12z m59 -135 c6 -20 4 -23 -18 -23 -30 0 -29 -2 -15 40 12 34 19 30 33 -17z"/> <path d="M1775 291 c-3 -2 -5 -26 -5 -53 0 -37 10 -68 40 -129 41 -80 41 -80 77 -77 34 3 39 8 74 72 35 65 58 170 40 187 -3 4 -21 5 -38 2 -32 -5 -33 -7 -33 -50 0 -38 -31 -123 -45 -123 -14 0 -35 67 -35 113 l0 55 -35 4 c-20 2 -38 2 -40 -1z"/> <path d="M2040 298 c0 -2 -1 -62 -3 -134 l-2 -132 89 -6 c95 -7 106 -3 106 41 0 20 -6 22 -57 25 -46 2 -59 7 -61 20 -3 15 4 18 46 18 51 0 62 9 62 49 0 14 -9 17 -52 16 -42 0 -53 3 -56 18 -3 15 5 17 56 17 l59 0 -6 33 -7 32 -87 3 c-48 1 -87 1 -87 0z"/> <path d="M2288 293 l-28 -4 0 -130 0 -129 41 0 41 0 -4 42 c-3 37 0 43 16 43 13 0 24 -13 35 -43 14 -39 18 -42 53 -42 44 0 45 6 18 60 l-20 40 20 20 c29 29 27 90 -4 119 -25 23 -106 35 -168 24z m106 -69 c9 -8 16 -19 16 -23 0 -16 -25 -31 -52 -31 -24 0 -28 4 -28 28 0 16 3 32 7 35 11 12 41 7 57 -9z"/> <path d="M2528 293 c-16 -4 -18 -19 -18 -133 l0 -129 36 -7 c46 -8 130 3 159 22 29 19 55 72 55 114 0 45 -28 98 -59 114 -28 14 -145 27 -173 19z m133 -72 c18 -14 24 -29 24 -61 0 -47 -29 -80 -70 -80 -18 0 -24 7 -29 40 -3 22 -3 58 0 80 5 33 11 40 29 40 13 0 33 -9 46 -19z"/> <path d="M2790 167 l0 -134 91 -7 c50 -4 93 -6 94 -4 1 2 6 18 10 35 l7 33 -61 0 c-54 0 -61 2 -61 20 0 17 7 20 50 20 50 0 50 0 50 33 0 33 0 33 -47 33 -37 -1 -48 3 -51 17 -3 15 5 17 53 17 l56 0 -3 33 -3 32 -92 3 -93 3 0 -134z"/> </g> </svg> 