 <svg  version="1.0" xmlns="http://www.w3.org/2000/svg"  width="726.000000pt" height="95.000000pt" viewBox="0 0 726.000000 95.000000"  preserveAspectRatio="xMidYMid meet">  <g transform="translate(0.000000,95.000000) scale(0.100000,-0.100000)" fill="#12c106" stroke="none"> <path d="M30 605 l0 -205 55 0 54 0 3 93 3 92 41 -95 c23 -53 48 -96 56 -98 11 -2 26 24 53 90 51 130 59 132 50 16 l-7 -98 61 0 61 0 0 206 0 205 -52 -3 -53 -3 -51 -102 c-27 -56 -53 -105 -57 -109 -3 -4 -30 43 -58 105 l-52 111 -53 0 -54 0 0 -205z"/> <path d="M631 788 c-37 -99 -97 -265 -117 -320 l-23 -68 60 0 c58 0 60 1 66 30 5 30 6 30 73 30 67 0 68 -1 79 -30 10 -29 12 -30 70 -30 34 0 61 2 61 5 0 8 -138 363 -150 384 -9 17 -20 21 -61 21 -42 0 -51 -3 -58 -22z m92 -211 c2 -18 -4 -23 -32 -25 -32 -3 -34 -2 -28 25 3 15 11 42 18 58 l11 30 14 -33 c8 -18 15 -43 17 -55z"/> <path d="M945 803 c-6 -5 -10 -86 -10 -206 l0 -197 115 0 c90 0 123 4 149 18 141 71 143 302 4 364 -49 22 -238 37 -258 21z m215 -111 c59 -60 47 -161 -23 -195 -23 -12 -47 -17 -62 -13 -25 6 -25 8 -25 121 l0 115 41 0 c31 0 47 -6 69 -28z"/> <path d="M1360 808 c0 -2 -1 -94 -3 -205 l-2 -202 135 -3 c74 -2 138 -1 142 2 4 3 8 25 10 49 l3 44 -85 1 -85 1 -3 33 -3 32 74 0 75 0 6 31 c13 65 13 65 -71 64 -78 0 -78 0 -81 28 l-3 27 85 0 c95 0 94 -1 80 69 l-6 31 -134 0 c-74 0 -134 -1 -134 -2z"/> <path d="M1693 605 l0 -205 58 0 59 0 0 205 0 205 -58 0 -58 0 -1 -205z"/> <path d="M1888 803 c-16 -4 -18 -22 -18 -204 l0 -199 61 0 62 0 -7 70 -7 70 29 0 c26 0 31 -6 56 -70 l28 -70 59 0 c32 0 59 3 59 6 0 3 -15 38 -34 78 l-33 72 28 32 c64 71 31 187 -60 212 -36 10 -190 12 -223 3z m187 -99 c39 -40 -10 -105 -68 -90 -24 6 -27 11 -27 50 0 23 3 46 7 49 13 13 72 7 88 -9z"/> <path d="M2359 783 c-29 -75 -122 -331 -129 -355 l-9 -28 59 0 c57 0 59 1 65 30 7 30 7 30 75 30 67 0 68 -1 79 -30 10 -29 12 -30 72 -30 54 0 60 2 54 18 -3 9 -36 93 -71 187 -36 93 -70 177 -75 187 -7 14 -22 18 -60 18 -45 0 -50 -3 -60 -27z m92 -203 c4 -22 0 -25 -30 -28 -32 -3 -34 -2 -28 25 3 15 11 42 18 58 l11 30 13 -30 c7 -16 15 -41 16 -55z"/> <path d="M2655 734 l-7 -75 64 -127 63 -127 54 0 54 0 61 120 c55 109 61 127 65 193 2 41 -1 78 -6 83 -6 6 -32 7 -62 3 l-51 -7 0 -74 c0 -63 -5 -83 -31 -135 l-31 -62 -29 54 c-24 47 -28 67 -29 136 l0 82 -31 6 c-75 15 -76 13 -84 -70z"/> <path d="M3055 605 l-1 -205 122 0 c67 0 129 -3 138 -6 16 -6 25 15 29 70 l2 29 -85 1 -85 1 -3 33 -3 32 74 0 74 0 7 38 c3 20 6 42 6 48 0 8 -26 11 -77 10 -78 -1 -78 -1 -81 27 l-3 27 87 0 87 0 -7 31 c-3 17 -6 40 -6 50 0 18 -10 19 -137 19 l-138 0 0 -205z"/> <path d="M3408 803 c-16 -4 -18 -22 -18 -204 l0 -199 61 0 60 0 -7 70 c-7 70 -7 70 18 70 31 0 40 -11 63 -75 10 -27 21 -54 25 -58 4 -4 32 -7 63 -5 l56 3 -33 75 -33 75 28 33 c24 27 29 42 29 87 0 65 -29 105 -88 123 -38 11 -188 15 -224 5z m186 -102 c38 -42 -9 -102 -67 -87 -25 6 -27 11 -27 56 l0 50 38 0 c26 0 45 -7 56 -19z"/> <path d="M3778 804 c-5 -4 -8 -97 -8 -206 l0 -198 117 0 c106 0 120 2 159 25 63 37 99 114 91 196 -11 128 -80 179 -252 187 -55 2 -103 1 -107 -4z m213 -112 c44 -39 52 -111 17 -161 -25 -38 -66 -56 -103 -47 -25 6 -25 8 -25 121 l0 115 40 0 c29 0 48 -7 71 -28z"/> <path d="M4190 615 c0 -107 0 -198 0 -202 0 -5 61 -10 136 -13 136 -5 137 -5 145 18 5 13 9 36 9 51 l0 28 -78 -5 c-83 -5 -108 6 -100 45 3 15 15 18 78 19 l75 1 3 50 3 50 -72 -5 c-74 -5 -89 1 -89 41 0 15 11 17 85 17 l85 0 0 34 c0 67 2 66 -146 66 l-134 0 0 -195z"/> </g> </svg> 