<?xml version="1.0" standalone="no"?>
<!DOCTYPE svg PUBLIC "-//W3C//DTD SVG 20010904//EN"
 "http://www.w3.org/TR/2001/REC-SVG-20010904/DTD/svg10.dtd">
<svg version="1.0" xmlns="http://www.w3.org/2000/svg"
 width="500.000000px" height="500.000000px" viewBox="0 0 500.000000 500.000000"
 preserveAspectRatio="xMidYMid meet">

<g transform="translate(0.000000,500.000000) scale(0.100000,-0.100000)"
fill="#000000" stroke="none">
<path d="M1499 2523 c-35 -51 -28 -52 -78 15 -15 21 -20 22 -44 11 -23 -11
-27 -18 -27 -56 0 -36 3 -43 20 -43 17 0 20 7 20 40 0 50 9 51 35 2 29 -53 55
-53 85 0 l25 43 3 -42 c3 -38 6 -43 28 -43 23 0 24 3 24 60 0 60 0 60 -30 60
-23 0 -35 -9 -61 -47z"/>
<path d="M1656 2513 c-29 -49 -32 -59 -18 -62 9 -2 18 2 20 8 5 14 99 15 107
1 3 -5 15 -10 26 -10 21 0 22 -1 -35 87 -32 50 -58 44 -100 -24z m84 -15 c0
-4 -11 -8 -25 -8 -28 0 -30 3 -14 32 11 21 12 21 25 3 8 -10 14 -22 14 -27z"/>
<path d="M1840 2510 l0 -60 63 0 c84 0 112 15 112 60 0 45 -28 60 -112 60
l-63 0 0 -60z m118 30 c7 0 12 -13 12 -29 0 -30 -14 -41 -56 -41 -21 0 -24 5
-24 33 0 40 8 50 35 43 11 -3 26 -6 33 -6z"/>
<path d="M2050 2510 l0 -60 75 0 c43 0 75 4 75 10 0 6 -25 10 -55 10 -42 0
-55 3 -55 15 0 11 12 15 45 15 25 0 45 5 45 10 0 6 -21 10 -46 10 -62 0 -54
24 9 28 73 5 55 22 -23 22 l-70 0 0 -60z"/>
<path d="M2230 2510 c0 -57 1 -60 25 -60 24 0 25 3 25 60 0 57 -1 60 -25 60
-24 0 -25 -3 -25 -60z"/>
<path d="M2310 2510 c0 -57 1 -60 25 -60 18 0 25 5 25 20 0 13 7 20 20 20 11
0 29 -9 40 -20 11 -11 29 -20 40 -20 18 0 19 3 10 20 -8 14 -8 26 0 41 9 16 8
25 -6 40 -14 15 -31 19 -86 19 l-68 0 0 -60z m104 34 c30 -12 18 -34 -19 -34
-28 0 -35 4 -35 20 0 20 22 26 54 14z"/>
<path d="M2541 2510 c-40 -60 -40 -60 -16 -60 14 0 25 5 25 10 0 14 94 12 108
-2 8 -8 15 -8 21 -2 6 5 -2 29 -22 62 -44 72 -64 70 -116 -8z m77 5 c11 -23
10 -25 -13 -25 -26 0 -29 7 -19 34 9 23 19 20 32 -9z"/>
<path d="M2746 2523 c39 -67 44 -73 68 -73 15 0 29 16 53 60 32 59 32 60 10
60 -17 0 -26 -11 -40 -45 -11 -25 -23 -45 -27 -45 -5 0 -16 20 -26 45 -13 36
-21 45 -41 45 l-24 0 27 -47z"/>
<path d="M2930 2510 l0 -60 75 0 c43 0 75 4 75 10 0 6 -25 10 -55 10 -42 0
-55 3 -55 15 0 11 11 15 40 15 22 0 40 5 40 10 0 6 -18 10 -41 10 -58 0 -46
24 14 28 73 5 55 22 -23 22 l-70 0 0 -60z"/>
<path d="M3100 2511 c0 -58 1 -61 24 -61 15 0 26 7 29 20 3 12 14 20 26 20 12
0 29 -9 38 -20 10 -11 25 -20 35 -20 21 0 23 11 7 27 -9 9 -8 16 5 28 9 9 16
21 16 25 0 21 -49 38 -112 39 l-68 2 0 -60z m128 25 c11 -12 -13 -26 -44 -26
-33 0 -45 16 -27 34 7 7 62 1 71 -8z"/>
<path d="M3300 2510 l0 -60 68 0 c77 0 112 17 112 56 0 45 -32 64 -110 64
l-70 0 0 -60z m118 30 c7 0 12 -13 12 -29 0 -30 -14 -41 -56 -41 -21 0 -24 5
-24 33 0 40 8 50 35 43 11 -3 26 -6 33 -6z"/>
<path d="M3510 2510 l0 -60 75 0 c43 0 75 4 75 10 0 6 -22 10 -50 10 -38 0
-50 4 -50 15 0 11 11 15 40 15 53 0 51 18 -2 22 -58 4 -55 22 5 26 73 5 55 22
-23 22 l-70 0 0 -60z"/>
</g>
</svg>
