<?xml version="1.0" encoding="UTF-8"?>
<svg xmlns="http://www.w3.org/2000/svg" width="580" height="81" viewBox="0 0 580 81" fill="none">
  <g clip-path="url(#clip0_12_73)">
    <g clip-path="url(#clip1_12_73)">
      <path d="M57.1072 23.876H19.3598L22.7422 29.9378H53.7248L57.1072 23.876Z" fill="#EEE214"></path>
      <path d="M11 23.876L30.1923 58.2651L33.6188 52.1203L17.861 23.876H11Z" fill="#6CBED1"></path>
      <path d="M34.0556 65.1894L53.1798 30.9122L46.3308 30.9039L30.6251 59.0446L34.0556 65.1894Z" fill="#7AC590"></path>
      <path d="M62.6577 23.8801H75.0811C81.2568 23.8801 83.6333 27.3754 83.6333 32.1022C83.6333 34.8097 82.3669 38.1226 79.4774 38.5372C82.1826 39.0181 84.2184 41.6842 84.2184 45.2458C84.2184 51.4279 81.4131 54.3676 75.2294 54.3676H62.6577V23.8801ZM74.5602 35.668C76.1632 35.668 77.0208 34.5609 77.0208 32.8817C77.0208 30.5639 75.7183 29.9793 74.5602 29.9793H69.3503V35.668H74.5602ZM75.0491 48.2685C76.6922 48.2685 77.7542 47.3148 77.7542 44.6819C77.7542 42.7415 77.0849 40.9503 75.0491 40.9503H69.3383V48.2685H75.0491Z" fill="black"></path>
      <path d="M96.0448 23.8014C100.822 23.8014 103.034 24.1663 106.272 25.2816V30.5101C103.468 30.1375 100.647 29.9285 97.8201 29.884C94.1011 29.884 92.6103 30.3442 92.6103 39.0762C92.6103 45.7766 93.536 48.198 97.8201 48.198C101.964 48.198 106.236 47.8497 106.236 47.8497V53.0657C103.707 53.9986 100.906 54.3635 96.0087 54.2723C88.7069 54.1811 86.11 48.7287 86.11 38.9933C86.11 29.4362 88.1539 23.8014 96.0087 23.8014" fill="black"></path>
      <path d="M109.414 31.7829C109.414 25.862 112.841 23.9921 117.305 23.905C122.254 23.7848 126.47 24.2823 129.059 25.1489V30.1824C126.538 29.9295 121.445 29.7678 119.501 29.7678C117.217 29.7346 116.095 29.8673 116.095 32.1768V33.1885C116.095 35.0667 116.684 35.6762 118.872 35.6762H122.9C128.606 35.6762 129.845 40.6518 129.845 43.9232V45.6314C129.845 52.7796 125.837 54.1644 121.99 54.1644C116.083 54.1644 113.943 53.9944 110.592 52.8708V47.8331C112.151 47.999 116.968 48.285 120.591 48.285C122.246 48.285 123.557 47.9285 123.557 46.1083V44.9266C123.557 43.4546 123.132 42.5756 121.212 42.5756H117.105C109.831 42.5756 109.414 36.6257 109.414 34.3246V31.7829Z" fill="black"></path>
      <path d="M133.772 23.8801H146.865C155.14 23.8801 157 31.219 157 39.2462C157 48.9733 153.85 54.3635 146.865 54.3635H133.772V23.8801ZM146.348 48.2685C149.406 48.2685 150.492 45.0344 150.492 39.0181C150.492 31.1402 148.941 29.5688 146.348 29.5688H140.453V48.2685H146.348Z" fill="black"></path>
      <path d="M109.418 65.1895H42.8923V65.9263H109.418V65.1895Z" fill="black"></path>
      <path d="M117.485 58.7834C117.737 58.7812 117.988 58.8232 118.227 58.9078C118.446 58.9855 118.648 59.1082 118.82 59.2685C118.991 59.4292 119.128 59.6256 119.221 59.8449C119.413 60.3469 119.413 60.9059 119.221 61.408C119.128 61.6285 118.991 61.8262 118.82 61.9885C118.65 62.1517 118.447 62.2748 118.227 62.3492C117.988 62.4324 117.737 62.473 117.485 62.4694H115.686V65.1894H115.217V58.7834H117.485ZM115.686 59.198V62.0216H117.433C117.81 62.0378 118.181 61.916 118.479 61.6775C119.018 61.075 119.018 60.1446 118.479 59.5422C118.181 59.3037 117.81 59.1818 117.433 59.198H115.686Z" fill="black"></path>
      <path d="M122.531 58.7295C122.82 58.7251 123.108 58.7801 123.376 58.8912C123.622 58.9949 123.845 59.147 124.034 59.339C124.165 59.4716 124.278 59.6223 124.37 59.7868C124.457 59.9474 124.519 60.1208 124.555 60.301C124.598 60.5321 124.623 60.7664 124.631 61.0017C124.631 61.267 124.651 61.5946 124.651 61.9843C124.651 62.3741 124.651 62.7016 124.631 62.9712C124.623 63.205 124.598 63.4379 124.555 63.6677C124.519 63.8492 124.457 64.024 124.37 64.186C124.14 64.587 123.792 64.9009 123.376 65.0816C122.832 65.2973 122.23 65.2973 121.685 65.0816C121.439 64.9775 121.216 64.8239 121.028 64.6297C120.897 64.4978 120.784 64.3486 120.691 64.186C120.603 64.0248 120.541 63.8497 120.507 63.6677C120.462 63.4383 120.437 63.2052 120.431 62.9712C120.431 62.7016 120.411 62.3741 120.411 61.9843C120.411 61.5946 120.411 61.267 120.431 61.0017C120.436 60.7663 120.462 60.5318 120.507 60.301C120.54 60.1202 120.603 59.9464 120.691 59.7868C120.918 59.3831 121.268 59.0683 121.685 58.8912C121.954 58.7798 122.241 58.7248 122.531 58.7295ZM122.531 59.1442C122.091 59.1348 121.666 59.3132 121.357 59.6376C121.252 59.7461 121.164 59.8705 121.096 60.0066C121.029 60.1538 120.981 60.3101 120.956 60.471C120.921 60.6794 120.9 60.8899 120.892 61.1012C120.892 61.3417 120.892 61.6319 120.892 61.9678C120.892 62.3036 120.892 62.5938 120.892 62.8385C120.9 63.0484 120.921 63.2576 120.956 63.4646C120.981 63.6254 121.029 63.7817 121.096 63.9289C121.163 64.0656 121.251 64.1902 121.357 64.298C122.009 64.9558 123.049 64.9558 123.701 64.298C123.808 64.1913 123.896 64.0665 123.962 63.9289C124.03 63.7819 124.079 63.6256 124.106 63.4646C124.141 63.2577 124.161 63.0484 124.166 62.8385C124.166 62.5925 124.166 62.3022 124.166 61.9678C124.166 61.6319 124.166 61.3417 124.166 61.1012C124.161 60.8899 124.141 60.6792 124.106 60.471C124.079 60.3099 124.03 60.1536 123.962 60.0066C123.895 59.8697 123.807 59.745 123.701 59.6376C123.39 59.3203 122.967 59.1481 122.531 59.1607V59.1442Z" fill="black"></path>
      <path d="M128.67 58.7834C128.907 58.7815 129.143 58.8193 129.368 58.8953C129.575 58.9642 129.768 59.0756 129.933 59.2229C130.095 59.3706 130.223 59.555 130.306 59.7619C130.398 59.996 130.445 60.247 130.442 60.4999C130.457 60.9283 130.314 61.3464 130.041 61.6692C129.767 61.9734 129.401 62.171 129.003 62.2289L130.498 65.1894H129.949L128.474 62.2372H126.779V65.1894H126.31V58.7834H128.67ZM126.783 59.198V61.7894H128.606C128.959 61.806 129.306 61.6946 129.588 61.4743C130.102 60.9286 130.102 60.0589 129.588 59.5131C129.306 59.2929 128.959 59.1814 128.606 59.198H126.783Z" fill="black"></path>
      <path d="M135.267 59.2147H133.419V65.1894H132.951V59.2147H131.107V58.8H135.267V59.2147Z" fill="black"></path>
      <path d="M140.633 63.108C140.637 63.4033 140.583 63.6965 140.477 63.9704C140.378 64.2236 140.23 64.4525 140.04 64.6421C139.847 64.834 139.62 64.9847 139.371 65.0858C138.818 65.2958 138.212 65.2958 137.659 65.0858C137.41 64.9847 137.183 64.834 136.99 64.6421C136.801 64.4525 136.652 64.2236 136.553 63.9704C136.447 63.6965 136.394 63.4033 136.397 63.108V58.7834H136.866V63.0458C136.864 63.2928 136.903 63.5383 136.982 63.7714C137.053 63.9801 137.168 64.1699 137.319 64.327C137.466 64.4833 137.643 64.6049 137.84 64.6836C138.056 64.7696 138.286 64.8119 138.517 64.808C138.748 64.811 138.978 64.7688 139.194 64.6836C139.39 64.6029 139.567 64.4816 139.715 64.327C139.863 64.1686 139.977 63.9791 140.048 63.7714C140.127 63.5383 140.166 63.2928 140.164 63.0458V58.7834H140.633V63.108Z" fill="black"></path>
      <path d="M144.332 58.7295C144.59 58.7287 144.846 58.7736 145.089 58.8622C145.559 59.0332 145.951 59.3791 146.188 59.8324C146.315 60.0712 146.401 60.3306 146.444 60.5995H145.975C145.904 60.1897 145.7 59.8169 145.398 59.5422C144.731 58.9944 143.775 59.0422 143.162 59.6541C143.056 59.7616 142.968 59.8862 142.901 60.0231C142.832 60.1702 142.784 60.3265 142.757 60.4875C142.722 60.6958 142.702 60.9064 142.697 61.1178C142.697 61.3582 142.697 61.6485 142.697 61.9843C142.697 62.3202 142.697 62.6104 142.697 62.855C142.702 63.065 142.722 63.2743 142.757 63.4811C142.784 63.6422 142.832 63.7985 142.901 63.9455C142.967 64.0831 143.055 64.2079 143.162 64.3145C143.469 64.6404 143.893 64.8192 144.332 64.8079C144.575 64.8087 144.815 64.7564 145.037 64.6545C145.262 64.5466 145.461 64.3879 145.618 64.1901C145.747 64.0242 145.844 63.8341 145.903 63.6304C145.967 63.4 145.997 63.161 145.991 62.9214V62.3451H144.332V61.9304H146.46V62.9753C146.467 63.2698 146.429 63.5636 146.348 63.846C146.264 64.0988 146.127 64.3295 145.947 64.5218C145.743 64.7518 145.494 64.9353 145.218 65.0609C144.937 65.1933 144.632 65.2612 144.324 65.2599C144.035 65.2643 143.747 65.2093 143.478 65.0982C143.063 64.9175 142.715 64.6035 142.485 64.2026C142.398 64.0405 142.336 63.8658 142.3 63.6843C142.257 63.4545 142.232 63.2216 142.224 62.9877C142.224 62.7182 142.224 62.3907 142.224 62.0009C142.224 61.6112 142.224 61.2836 142.224 61.0183C142.232 60.783 142.257 60.5487 142.3 60.3175C142.336 60.1374 142.398 59.964 142.485 59.8034C142.576 59.6389 142.69 59.4882 142.821 59.3556C143.01 59.1636 143.233 59.0115 143.478 58.9078C143.749 58.7899 144.039 58.7293 144.332 58.7295Z" fill="black"></path>
      <path d="M152.167 65.1894H151.662L151.121 63.6387H148.239L147.702 65.1977H147.218L149.494 58.7917H149.895L152.167 65.1894ZM148.388 63.1992H150.977L149.682 59.4303L148.388 63.1992Z" fill="black"></path>
      <path d="M153.718 64.7541H157V65.1687H153.249V58.7834H153.718V64.7541Z" fill="black"></path>
    </g>
    <g clip-path="url(#clip2_12_73)">
      <path d="M377.558 31.7193C377.529 31.7291 377.498 31.7273 377.47 31.7143C377.443 31.7013 377.421 31.6782 377.41 31.6496L375.086 25.6518C375.061 25.5851 375.081 25.5404 375.148 25.5177C376.564 25.0458 378.019 24.7806 379.512 24.7222C379.569 24.721 379.598 24.749 379.598 24.8062V31.2831C379.598 31.3415 379.569 31.3719 379.51 31.3743C378.843 31.3981 378.192 31.5131 377.558 31.7193Z" fill="#183668"></path>
      <path d="M382.624 31.7121L380.647 31.3349C380.603 31.3266 380.581 31.2998 380.581 31.2545V24.7991C380.581 24.7896 380.583 24.7802 380.587 24.7715C380.59 24.7628 380.596 24.755 380.603 24.7485C380.61 24.7419 380.618 24.7369 380.627 24.7336C380.635 24.7303 380.645 24.7289 380.654 24.7293C382.132 24.8032 383.572 25.0762 384.973 25.5481C384.987 25.5527 384.999 25.5599 385.01 25.5694C385.02 25.5789 385.029 25.5904 385.035 25.6033C385.041 25.6161 385.044 25.63 385.045 25.6442C385.045 25.6584 385.043 25.6725 385.038 25.6858L382.75 31.6424C382.727 31.6996 382.685 31.7229 382.624 31.7121Z" fill="#EB1C2D"></path>
      <path d="M374.649 33.1245L370.359 28.4175C370.284 28.3352 370.289 28.2589 370.375 28.1886C371.508 27.2578 372.75 26.5046 374.099 25.929C374.108 25.925 374.117 25.9229 374.127 25.9229C374.137 25.9228 374.146 25.9247 374.155 25.9286C374.164 25.9324 374.173 25.9381 374.179 25.9452C374.186 25.9524 374.192 25.9608 374.195 25.9701L376.535 31.9839C376.551 32.0245 376.54 32.0554 376.503 32.0769L374.733 33.137C374.702 33.1561 374.674 33.1519 374.649 33.1245Z" fill="#02558B"></path>
      <path d="M383.674 32.118C383.651 32.104 383.634 32.0823 383.625 32.0568C383.617 32.0313 383.617 32.0036 383.627 31.9786L385.93 26.0005C385.934 25.9911 385.939 25.9825 385.946 25.9754C385.953 25.9682 385.962 25.9625 385.971 25.9586C385.98 25.9548 385.99 25.9529 386.001 25.953C386.011 25.9531 386.021 25.9553 386.03 25.9594C387.429 26.572 388.712 27.3705 389.879 28.3549C389.887 28.3618 389.894 28.3703 389.899 28.38C389.903 28.3896 389.906 28.4001 389.907 28.411C389.908 28.4218 389.906 28.4327 389.902 28.443C389.899 28.4534 389.893 28.4629 389.886 28.4711L385.558 33.1835C385.508 33.2383 385.452 33.2461 385.39 33.2068L383.674 32.118Z" fill="#D3A029"></path>
      <path d="M369.628 29.0163L373.952 33.7519C374.002 33.8079 374 33.8621 373.947 33.9146C373.463 34.3889 373.051 34.9199 372.712 35.5074C372.678 35.5658 372.631 35.5795 372.57 35.5485L366.812 32.6721C366.743 32.6364 366.727 32.5845 366.766 32.5166C367.494 31.2139 368.395 30.0454 369.47 29.0109C369.525 28.9596 369.578 28.9614 369.628 29.0163Z" fill="#5DBB46"></path>
      <path d="M390.542 29.1415C390.552 29.13 390.565 29.1209 390.579 29.1145C390.593 29.1081 390.608 29.1046 390.624 29.1043C390.639 29.1039 390.655 29.1067 390.669 29.1125C390.684 29.1183 390.697 29.1269 390.708 29.1379C391.764 30.1831 392.651 31.357 393.369 32.6597C393.396 32.7109 393.384 32.7497 393.333 32.7759L387.58 35.6523C387.533 35.6749 387.495 35.6654 387.464 35.6237L386.243 33.9736C386.227 33.952 386.219 33.9255 386.221 33.8987C386.222 33.8719 386.233 33.8465 386.252 33.827L390.542 29.1415Z" fill="#279B48"></path>
      <path d="M372.104 36.3674C372.145 36.3888 372.16 36.4222 372.147 36.4675L371.551 38.484C371.536 38.5353 371.501 38.5585 371.448 38.5538L365.116 37.9817C365.009 37.9722 364.964 37.915 364.98 37.8101C365.2 36.3346 365.618 34.9187 366.233 33.5625C366.264 33.4945 366.313 33.4773 366.379 33.5106L372.104 36.3674Z" fill="#007DBC"></path>
      <path d="M388.61 38.636C388.59 38.6381 388.571 38.6333 388.555 38.6224C388.539 38.6116 388.527 38.5955 388.522 38.577L387.966 36.6195C387.947 36.5539 387.968 36.5057 388.03 36.4747L393.731 33.6269C393.793 33.5959 393.839 33.612 393.867 33.6751C394.481 35.0278 394.883 36.4419 395.072 37.9174C395.082 37.9889 395.051 38.0282 394.979 38.0354L388.61 38.636Z" fill="#C31F33"></path>
      <path d="M364.985 38.9185L371.344 39.487C371.396 39.4917 371.425 39.5204 371.43 39.5728L371.625 41.7109C371.628 41.7478 371.612 41.7717 371.576 41.7824L365.43 43.5433C365.411 43.5487 365.39 43.5502 365.37 43.5476C365.35 43.545 365.33 43.5384 365.313 43.5282C365.295 43.518 365.28 43.5044 365.269 43.4883C365.257 43.4721 365.249 43.4537 365.244 43.4342C364.921 41.9826 364.794 40.5131 364.862 39.0258C364.862 39.0105 364.866 38.9955 364.873 38.9817C364.879 38.9679 364.889 38.9556 364.9 38.9456C364.912 38.9356 364.925 38.928 364.94 38.9233C364.954 38.9187 364.97 38.917 364.985 38.9185Z" fill="#48773E"></path>
      <path d="M388.515 41.7735C388.453 41.7556 388.425 41.7145 388.431 41.6501L388.622 39.6372C388.626 39.6014 388.645 39.5817 388.681 39.5782L395.027 38.9811C395.131 38.9715 395.185 39.0186 395.188 39.1223C395.244 40.5823 395.112 42.0249 394.792 43.4503C394.788 43.4647 394.782 43.4783 394.773 43.4902C394.765 43.5021 394.754 43.5121 394.741 43.5197C394.728 43.5272 394.714 43.532 394.699 43.534C394.685 43.5359 394.67 43.5348 394.656 43.5308L388.515 41.7735Z" fill="#EF402B"></path>
      <path d="M372.844 44.7625L367.715 48.6758C367.708 48.6809 367.7 48.6845 367.691 48.6865C367.683 48.6885 367.674 48.6887 367.665 48.6872C367.656 48.6857 367.648 48.6825 367.641 48.6778C367.633 48.673 367.627 48.6669 367.622 48.6597C366.744 47.4011 366.065 46.0437 365.588 44.5873C365.566 44.5229 365.588 44.4812 365.654 44.4621L371.73 42.712C371.823 42.6857 371.892 42.7155 371.936 42.8013L372.871 44.6445C372.881 44.6642 372.883 44.6868 372.879 44.7083C372.874 44.7299 372.861 44.749 372.844 44.7625Z" fill="#CF8D2A"></path>
      <path d="M394.387 44.4353C394.404 44.4402 394.419 44.4483 394.432 44.4591C394.445 44.4699 394.455 44.4832 394.463 44.4982C394.471 44.5133 394.475 44.5297 394.476 44.5465C394.477 44.5634 394.475 44.5803 394.47 44.5962C394.01 45.9763 393.371 47.2695 392.555 48.4756C392.518 48.5292 392.474 48.5363 392.423 48.497L387.253 44.5962C387.235 44.5833 387.223 44.5639 387.219 44.5422C387.215 44.5204 387.22 44.4981 387.233 44.48C387.592 43.9568 387.868 43.3925 388.063 42.7871C388.096 42.6834 388.165 42.6464 388.27 42.6762L394.387 44.4353Z" fill="#00AED9"></path>
      <path d="M391.879 49.2657C391.887 49.271 391.893 49.2777 391.897 49.2854C391.902 49.2931 391.905 49.3016 391.906 49.3104C391.907 49.3193 391.906 49.3283 391.904 49.3369C391.902 49.3455 391.897 49.3535 391.892 49.3605C390.944 50.5475 389.844 51.5701 388.592 52.4282C388.539 52.4651 388.496 52.4562 388.461 52.4014L385.068 46.9203C385.034 46.8643 385.043 46.8166 385.095 46.7773C385.647 46.372 386.141 45.9054 386.579 45.3775C386.594 45.3597 386.615 45.3484 386.638 45.3457C386.661 45.343 386.684 45.3493 386.702 45.3632L391.879 49.2657Z" fill="#FDB713"></path>
      <path d="M375.086 46.9238C375.106 46.9416 375.118 46.966 375.122 46.9926C375.126 47.0191 375.12 47.0461 375.105 47.0686L371.751 52.4871C371.709 52.5551 371.654 52.5664 371.587 52.5211C370.355 51.6845 369.264 50.6941 368.314 49.5499C368.304 49.5378 368.297 49.5238 368.292 49.5089C368.288 49.4939 368.287 49.4783 368.289 49.463C368.291 49.4476 368.296 49.4329 368.303 49.4196C368.311 49.4062 368.321 49.3946 368.333 49.3855L373.412 45.5204C373.429 45.5073 373.45 45.5007 373.472 45.5017C373.493 45.5027 373.514 45.5112 373.53 45.5258L375.086 46.9238Z" fill="#F99D26"></path>
      <path d="M383.482 54.6949C383.475 54.6968 383.467 54.697 383.459 54.6956C383.451 54.6943 383.443 54.6913 383.437 54.687C383.43 54.6826 383.424 54.677 383.42 54.6704C383.415 54.6637 383.412 54.6563 383.411 54.6485L382.213 48.3164C382.202 48.2592 382.225 48.2199 382.279 48.1984L384.158 47.4333C384.226 47.4059 384.279 47.4231 384.317 47.4851L387.664 52.9054C387.701 52.9638 387.689 53.0103 387.628 53.0449C386.323 53.7874 384.941 54.3374 383.482 54.6949Z" fill="#8F1838"></path>
      <path d="M377.976 48.202C378.007 48.2096 378.034 48.2289 378.052 48.2559C378.069 48.2828 378.075 48.3153 378.069 48.3468L376.88 54.6788C376.879 54.6886 376.875 54.6979 376.869 54.7062C376.864 54.7145 376.856 54.7216 376.848 54.7271C376.84 54.7326 376.83 54.7363 376.821 54.7382C376.811 54.74 376.801 54.7399 376.791 54.7378C375.307 54.4101 373.902 53.8773 372.574 53.1396C372.515 53.1062 372.504 53.0616 372.538 53.0055L375.931 47.5173C375.966 47.4624 376.012 47.4499 376.071 47.4797C376.676 47.8003 377.311 48.0411 377.976 48.202Z" fill="#E11484"></path>
      <path d="M379.053 48.4488L381.183 48.4237C381.244 48.4225 381.281 48.4523 381.293 48.5131L382.471 54.7504C382.474 54.7695 382.474 54.7891 382.47 54.808C382.465 54.827 382.457 54.8448 382.446 54.8606C382.435 54.8763 382.42 54.8895 382.403 54.8995C382.387 54.9094 382.368 54.9159 382.349 54.9185C380.865 55.1104 379.38 55.1187 377.892 54.9435C377.88 54.9422 377.869 54.9385 377.858 54.9325C377.847 54.9265 377.838 54.9183 377.831 54.9086C377.824 54.8988 377.819 54.8877 377.816 54.8758C377.813 54.864 377.813 54.8517 377.815 54.8398L378.997 48.4953C379 48.4821 379.007 48.4702 379.017 48.4617C379.027 48.4532 379.04 48.4486 379.053 48.4488Z" fill="#F36D25"></path>
    </g>
    <path d="M226.576 39.444V40.859C226.576 43.1285 226.269 45.1656 225.653 46.9703C225.038 48.775 224.17 50.3131 223.049 51.5846C221.928 52.8424 220.588 53.8063 219.029 54.4762C217.484 55.1461 215.769 55.4811 213.882 55.4811C212.009 55.4811 210.293 55.1461 208.734 54.4762C207.19 53.8063 205.85 52.8424 204.715 51.5846C203.58 50.3131 202.698 48.775 202.069 46.9703C201.454 45.1656 201.147 43.1285 201.147 40.859V39.444C201.147 37.1608 201.454 35.1237 202.069 33.3326C202.685 31.528 203.553 29.9899 204.674 28.7184C205.809 27.4469 207.149 26.4762 208.693 25.8063C210.252 25.1364 211.968 24.8014 213.841 24.8014C215.728 24.8014 217.443 25.1364 218.988 25.8063C220.547 26.4762 221.887 27.4469 223.008 28.7184C224.143 29.9899 225.018 31.528 225.633 33.3326C226.262 35.1237 226.576 37.1608 226.576 39.444ZM220.362 40.859V39.403C220.362 37.817 220.219 36.4225 219.932 35.2194C219.645 34.0162 219.221 33.0045 218.66 32.1842C218.1 31.3639 217.416 30.7487 216.609 30.3385C215.803 29.9147 214.88 29.7028 213.841 29.7028C212.802 29.7028 211.879 29.9147 211.072 30.3385C210.279 30.7487 209.603 31.3639 209.042 32.1842C208.495 33.0045 208.078 34.0162 207.791 35.2194C207.504 36.4225 207.36 37.817 207.36 39.403V40.859C207.36 42.4313 207.504 43.8258 207.791 45.0426C208.078 46.2457 208.502 47.2643 209.063 48.0983C209.623 48.9186 210.307 49.5406 211.113 49.9645C211.92 50.3883 212.843 50.6002 213.882 50.6002C214.921 50.6002 215.844 50.3883 216.651 49.9645C217.457 49.5406 218.134 48.9186 218.681 48.0983C219.228 47.2643 219.645 46.2457 219.932 45.0426C220.219 43.8258 220.362 42.4313 220.362 40.859Z" fill="#069EDB"></path>
    <path d="M242.275 41.9664H234.606L234.564 37.7418H241.004C242.139 37.7418 243.068 37.5983 243.793 37.3112C244.518 37.0104 245.058 36.5797 245.413 36.0192C245.782 35.4449 245.967 34.7477 245.967 33.9274C245.967 32.9977 245.789 32.2457 245.434 31.6715C245.092 31.0973 244.552 30.6803 243.814 30.4205C243.089 30.1608 242.152 30.0309 241.004 30.0309H236.738V55.0709H230.586V25.2115H241.004C242.74 25.2115 244.292 25.3756 245.659 25.7037C247.04 26.0319 248.209 26.5309 249.166 27.2008C250.123 27.8707 250.855 28.7184 251.36 29.7438C251.866 30.7555 252.119 31.9586 252.119 33.3531C252.119 34.5836 251.839 35.7184 251.278 36.7574C250.731 37.7965 249.863 38.6442 248.674 39.3004C247.498 39.9567 245.96 40.319 244.06 40.3873L242.275 41.9664ZM242.009 55.0709H232.924L235.323 50.2721H242.009C243.089 50.2721 243.971 50.1012 244.654 49.7594C245.338 49.4039 245.844 48.9254 246.172 48.3239C246.5 47.7223 246.664 47.0319 246.664 46.2526C246.664 45.3776 246.514 44.6188 246.213 43.9762C245.926 43.3336 245.461 42.8414 244.818 42.4996C244.176 42.1442 243.328 41.9664 242.275 41.9664H236.349L236.39 37.7418H243.773L245.188 39.403C247.006 39.3756 248.469 39.6969 249.576 40.3668C250.697 41.0231 251.511 41.8776 252.017 42.9303C252.536 43.983 252.796 45.111 252.796 46.3141C252.796 48.2281 252.379 49.8414 251.545 51.1539C250.711 52.4528 249.487 53.4303 247.874 54.0865C246.274 54.7428 244.319 55.0709 242.009 55.0709Z" fill="#069EDB"></path>
    <path d="M269.069 45.9039V25.2115H275.201V45.9039C275.201 47.9 274.764 49.6158 273.889 51.0514C273.014 52.4733 271.817 53.567 270.3 54.3326C268.796 55.0983 267.101 55.4811 265.214 55.4811C263.259 55.4811 261.529 55.153 260.025 54.4967C258.521 53.8405 257.339 52.8356 256.478 51.4821C255.616 50.1149 255.186 48.3854 255.186 46.2936H261.358C261.358 47.3873 261.509 48.2555 261.81 48.8981C262.124 49.5406 262.568 49.9987 263.143 50.2721C263.717 50.5455 264.407 50.6823 265.214 50.6823C265.993 50.6823 266.67 50.4977 267.244 50.1285C267.818 49.7594 268.263 49.2194 268.577 48.5084C268.905 47.7975 269.069 46.9293 269.069 45.9039Z" fill="#069EDB"></path>
    <path d="M300.067 50.2721V55.0709H284.174V50.2721H300.067ZM286.183 25.2115V55.0709H280.031V25.2115H286.183ZM297.996 37.3727V42.0485H284.174V37.3727H297.996ZM300.047 25.2115V30.0309H284.174V25.2115H300.047Z" fill="#069EDB"></path>
    <path d="M316.997 25.2115V55.0709H310.865V25.2115H316.997ZM326.184 25.2115V30.0309H301.821V25.2115H326.184Z" fill="#069EDB"></path>
    <path d="M335.813 25.2115V55.0709H329.681V25.2115H335.813Z" fill="#069EDB"></path>
    <path d="M351.923 48.8365L358.957 25.2115H365.806L355.409 55.0709H350.897L351.923 48.8365ZM345.442 25.2115L352.456 48.8365L353.522 55.0709H348.969L338.633 25.2115H345.442Z" fill="#069EDB"></path>
    <path d="M413.97 47.2574C413.97 46.7242 413.888 46.2457 413.724 45.8219C413.574 45.3844 413.287 44.9879 412.863 44.6324C412.439 44.2633 411.844 43.901 411.079 43.5455C410.313 43.1901 409.322 42.8209 408.105 42.4381C406.751 42.0006 405.466 41.5084 404.249 40.9615C403.046 40.4147 401.98 39.7789 401.05 39.0543C400.134 38.316 399.41 37.4615 398.876 36.4908C398.357 35.5201 398.097 34.3922 398.097 33.1071C398.097 31.8629 398.371 30.735 398.917 29.7233C399.464 28.6979 400.23 27.8229 401.214 27.0983C402.199 26.36 403.361 25.7926 404.701 25.3961C406.054 24.9996 407.538 24.8014 409.151 24.8014C411.352 24.8014 413.273 25.1979 414.914 25.9908C416.554 26.7838 417.826 27.8707 418.728 29.2516C419.644 30.6324 420.102 32.2115 420.102 33.9889H413.991C413.991 33.1139 413.806 32.3483 413.437 31.692C413.082 31.0221 412.535 30.4957 411.796 30.1129C411.072 29.7301 410.156 29.5387 409.048 29.5387C407.982 29.5387 407.093 29.7028 406.382 30.0309C405.671 30.3453 405.138 30.776 404.783 31.3229C404.427 31.8561 404.249 32.4576 404.249 33.1276C404.249 33.6334 404.373 34.0914 404.619 34.5016C404.878 34.9117 405.261 35.2946 405.767 35.65C406.273 36.0055 406.895 36.3405 407.633 36.6549C408.372 36.9694 409.226 37.277 410.197 37.5778C411.824 38.0699 413.252 38.6237 414.483 39.2389C415.727 39.8541 416.766 40.5446 417.6 41.3102C418.434 42.0758 419.063 42.944 419.487 43.9147C419.911 44.8854 420.123 45.986 420.123 47.2164C420.123 48.5153 419.87 49.6774 419.364 50.7028C418.858 51.7281 418.126 52.5963 417.169 53.3073C416.212 54.0182 415.071 54.5582 413.745 54.9274C412.418 55.2965 410.935 55.4811 409.294 55.4811C407.818 55.4811 406.362 55.2897 404.926 54.9069C403.491 54.5104 402.185 53.9156 401.009 53.1227C399.847 52.3297 398.917 51.318 398.22 50.0875C397.523 48.8571 397.174 47.401 397.174 45.7194H403.347C403.347 46.649 403.491 47.4352 403.778 48.0778C404.065 48.7203 404.468 49.2399 404.988 49.6364C405.521 50.0328 406.15 50.3199 406.874 50.4977C407.613 50.6754 408.419 50.7643 409.294 50.7643C410.361 50.7643 411.236 50.6139 411.919 50.3131C412.617 50.0123 413.129 49.5953 413.458 49.0621C413.799 48.5289 413.97 47.9274 413.97 47.2574Z" fill="#069EDB"></path>
    <path d="M434.298 51.3561C434.298 51.0911 434.259 50.8548 434.18 50.6471C434.102 50.4323 433.958 50.2353 433.751 50.0563C433.543 49.8772 433.249 49.6982 432.87 49.5192C432.49 49.333 431.992 49.1432 431.377 48.9498C430.675 48.7207 430.005 48.4628 429.368 48.1764C428.738 47.8828 428.175 47.5426 427.681 47.1559C427.187 46.7692 426.797 46.318 426.51 45.8024C426.231 45.2867 426.091 44.6852 426.091 43.9977C426.091 43.3317 426.238 42.7301 426.532 42.193C426.825 41.6559 427.237 41.1976 427.767 40.818C428.297 40.4313 428.92 40.1377 429.636 39.9371C430.352 39.7295 431.14 39.6256 432 39.6256C433.145 39.6256 434.152 39.8297 435.018 40.2379C435.892 40.639 436.572 41.2047 437.059 41.9352C437.546 42.6585 437.79 43.5 437.79 44.4596H434.309C434.309 44.0371 434.22 43.6647 434.041 43.3424C433.869 43.013 433.604 42.7552 433.246 42.569C432.895 42.3828 432.454 42.2897 431.924 42.2897C431.409 42.2897 430.976 42.3684 430.625 42.526C430.281 42.6764 430.019 42.8841 429.84 43.149C429.669 43.414 429.583 43.7041 429.583 44.0192C429.583 44.2698 429.647 44.499 429.776 44.7067C429.912 44.9072 430.105 45.097 430.356 45.276C430.614 45.4479 430.929 45.6126 431.301 45.7701C431.674 45.9277 432.1 46.0781 432.58 46.2213C433.418 46.4863 434.159 46.7799 434.803 47.1022C435.455 47.4244 436.003 47.7897 436.447 48.1979C436.891 48.6061 437.224 49.068 437.446 49.5836C437.675 50.0992 437.79 50.6829 437.79 51.3346C437.79 52.0293 437.654 52.6451 437.381 53.1823C437.116 53.7194 436.73 54.1777 436.221 54.5573C435.72 54.9296 435.118 55.2125 434.417 55.4059C433.715 55.5992 432.931 55.6959 432.064 55.6959C431.276 55.6959 430.499 55.5957 429.733 55.3951C428.967 55.1875 428.272 54.8724 427.649 54.4498C427.033 54.0273 426.539 53.4902 426.167 52.8385C425.801 52.1796 425.619 51.399 425.619 50.4967H429.121C429.121 50.9694 429.189 51.3704 429.325 51.6998C429.461 52.0221 429.654 52.2835 429.905 52.484C430.163 52.6845 430.474 52.8278 430.839 52.9137C431.205 52.9996 431.613 53.0426 432.064 53.0426C432.587 53.0426 433.009 52.971 433.332 52.8278C433.661 52.6774 433.905 52.4733 434.062 52.2155C434.22 51.9576 434.298 51.6712 434.298 51.3561Z" fill="#069EDB"></path>
    <path d="M448.194 39.8405H451.696V50.11C451.696 51.3274 451.438 52.3515 450.922 53.1823C450.414 54.013 449.705 54.6396 448.795 55.0621C447.886 55.4847 446.833 55.6959 445.637 55.6959C444.434 55.6959 443.374 55.4847 442.457 55.0621C441.548 54.6396 440.832 54.013 440.309 53.1823C439.793 52.3515 439.535 51.3274 439.535 50.11V39.8405H443.048V50.11C443.048 50.7832 443.148 51.3346 443.349 51.7643C443.557 52.1868 443.854 52.4983 444.241 52.6989C444.627 52.8922 445.093 52.9889 445.637 52.9889C446.181 52.9889 446.643 52.8922 447.023 52.6989C447.41 52.4983 447.7 52.1868 447.893 51.7643C448.093 51.3346 448.194 50.7832 448.194 50.11V39.8405Z" fill="#069EDB"></path>
    <path d="M462.089 51.3561C462.089 51.0911 462.05 50.8548 461.971 50.6471C461.892 50.4323 461.749 50.2353 461.541 50.0563C461.333 49.8772 461.04 49.6982 460.66 49.5192C460.281 49.333 459.783 49.1432 459.167 48.9498C458.465 48.7207 457.796 48.4628 457.158 48.1764C456.528 47.8828 455.966 47.5426 455.472 47.1559C454.978 46.7692 454.587 46.318 454.301 45.8024C454.022 45.2867 453.882 44.6852 453.882 43.9977C453.882 43.3317 454.029 42.7301 454.322 42.193C454.616 41.6559 455.028 41.1976 455.558 40.818C456.088 40.4313 456.711 40.1377 457.427 39.9371C458.143 39.7295 458.931 39.6256 459.79 39.6256C460.936 39.6256 461.942 39.8297 462.809 40.2379C463.682 40.639 464.363 41.2047 464.85 41.9352C465.337 42.6585 465.58 43.5 465.58 44.4596H462.1C462.1 44.0371 462.01 43.6647 461.831 43.3424C461.659 43.013 461.394 42.7552 461.036 42.569C460.685 42.3828 460.245 42.2897 459.715 42.2897C459.199 42.2897 458.766 42.3684 458.415 42.526C458.071 42.6764 457.81 42.8841 457.631 43.149C457.459 43.414 457.373 43.7041 457.373 44.0192C457.373 44.2698 457.438 44.499 457.566 44.7067C457.703 44.9072 457.896 45.097 458.147 45.276C458.404 45.4479 458.719 45.6126 459.092 45.7701C459.464 45.9277 459.89 46.0781 460.37 46.2213C461.208 46.4863 461.949 46.7799 462.594 47.1022C463.246 47.4244 463.793 47.7897 464.237 48.1979C464.681 48.6061 465.014 49.068 465.236 49.5836C465.466 50.0992 465.58 50.6829 465.58 51.3346C465.58 52.0293 465.444 52.6451 465.172 53.1823C464.907 53.7194 464.52 54.1777 464.012 54.5573C463.51 54.9296 462.909 55.2125 462.207 55.4059C461.505 55.5992 460.721 55.6959 459.855 55.6959C459.067 55.6959 458.29 55.5957 457.524 55.3951C456.757 55.1875 456.063 54.8724 455.44 54.4498C454.824 54.0273 454.329 53.4902 453.957 52.8385C453.592 52.1796 453.409 51.399 453.409 50.4967H456.911C456.911 50.9694 456.979 51.3704 457.115 51.6998C457.251 52.0221 457.445 52.2835 457.695 52.484C457.953 52.6845 458.265 52.8278 458.63 52.9137C458.995 52.9996 459.403 53.0426 459.855 53.0426C460.377 53.0426 460.8 52.971 461.122 52.8278C461.452 52.6774 461.695 52.4733 461.853 52.2155C462.01 51.9576 462.089 51.6712 462.089 51.3561Z" fill="#069EDB"></path>
    <path d="M474.706 39.8405V55.4811H471.215V39.8405H474.706ZM479.465 39.8405V42.5582H466.553V39.8405H479.465Z" fill="#069EDB"></path>
    <path d="M491.609 52.774V55.4811H483.284V52.774H491.609ZM484.476 39.8405V55.4811H480.974V39.8405H484.476ZM490.535 46.1354V48.7565H483.284V46.1354H490.535ZM491.62 39.8405V42.5582H483.284V39.8405H491.62Z" fill="#069EDB"></path>
    <path d="M506.009 39.8405V55.4811H502.518L496.61 45.3727V55.4811H493.108V39.8405H496.61L502.529 49.9489V39.8405H506.009Z" fill="#069EDB"></path>
    <path d="M515.339 39.8405V55.4811H511.848V39.8405H515.339ZM520.098 39.8405V42.5582H507.185V39.8405H520.098Z" fill="#069EDB"></path>
    <path d="M526.882 42.816L522.842 55.4811H519.104L524.894 39.8405H527.257L526.882 42.816ZM530.233 55.4811L526.183 42.816L525.764 39.8405H528.16L533.971 55.4811H530.233ZM530.061 49.6588V52.3658H521.908V49.6588H530.061ZM524.991 38.9918L527.118 35.651H530.706L527.73 38.9918H524.991Z" fill="#069EDB"></path>
    <path d="M539.971 52.0114L543.452 39.8405H547.351L541.991 55.4811H539.445L539.971 52.0114ZM536.802 39.8405L540.272 52.0114L540.82 55.4811H538.242L532.913 39.8405H536.802Z" fill="#069EDB"></path>
    <path d="M559.066 52.774V55.4811H550.74V52.774H559.066ZM551.933 39.8405V55.4811H548.431V39.8405H551.933ZM557.991 46.1354V48.7565H550.74V46.1354H557.991ZM559.076 39.8405V42.5582H550.74V39.8405H559.076Z" fill="#069EDB"></path>
    <path d="M570.769 52.774V55.4811H562.874V52.774H570.769ZM564.066 39.8405V55.4811H560.564V39.8405H564.066Z" fill="#069EDB"></path>
    <path d="M429.875 34.4811H427.687L427.701 32.7584H429.875C430.372 32.7584 430.791 32.6445 431.133 32.4166C431.474 32.1842 431.734 31.8424 431.912 31.3912C432.09 30.9355 432.179 30.3818 432.179 29.7301V29.2721C432.179 28.7799 432.128 28.347 432.028 27.9733C431.928 27.595 431.78 27.2783 431.584 27.0231C431.388 26.7679 431.144 26.5765 430.852 26.4489C430.565 26.3212 430.235 26.2574 429.861 26.2574H427.646V24.528H429.861C430.536 24.528 431.151 24.6419 431.707 24.8698C432.267 25.0976 432.751 25.4235 433.156 25.8473C433.566 26.2711 433.883 26.7724 434.106 27.3512C434.33 27.93 434.441 28.5748 434.441 29.2858V29.7301C434.441 30.4365 434.33 31.0813 434.106 31.6647C433.883 32.2434 433.566 32.7448 433.156 33.1686C432.751 33.5878 432.27 33.9114 431.714 34.1393C431.158 34.3671 430.545 34.4811 429.875 34.4811ZM428.952 24.528V34.4811H426.724V24.528H428.952Z" fill="#069EDB"></path>
    <path d="M442.289 32.7584V34.4811H436.991V32.7584H442.289ZM437.75 24.528V34.4811H435.522V24.528H437.75ZM441.606 28.5338V30.2018H436.991V28.5338H441.606ZM442.296 24.528V26.2574H436.991V24.528H442.296Z" fill="#069EDB"></path>
    <path d="M449.461 34.4811H447.273L447.287 32.7584H449.461C449.957 32.7584 450.377 32.6445 450.718 32.4166C451.06 32.1842 451.32 31.8424 451.498 31.3912C451.676 30.9355 451.764 30.3818 451.764 29.7301V29.2721C451.764 28.7799 451.714 28.347 451.614 27.9733C451.514 27.595 451.366 27.2783 451.17 27.0231C450.974 26.7679 450.73 26.5765 450.438 26.4489C450.151 26.3212 449.821 26.2574 449.447 26.2574H447.232V24.528H449.447C450.121 24.528 450.737 24.6419 451.293 24.8698C451.853 25.0976 452.336 25.4235 452.742 25.8473C453.152 26.2711 453.469 26.7724 453.692 27.3512C453.915 27.93 454.027 28.5748 454.027 29.2858V29.7301C454.027 30.4365 453.915 31.0813 453.692 31.6647C453.469 32.2434 453.152 32.7448 452.742 33.1686C452.336 33.5878 451.856 33.9114 451.3 34.1393C450.744 34.3671 450.131 34.4811 449.461 34.4811ZM448.538 24.528V34.4811H446.309V24.528H448.538Z" fill="#069EDB"></path>
    <path d="M461.875 32.7584V34.4811H456.577V32.7584H461.875ZM457.336 24.528V34.4811H455.107V24.528H457.336ZM461.191 28.5338V30.2018H456.577V28.5338H461.191ZM461.882 24.528V26.2574H456.577V24.528H461.882Z" fill="#069EDB"></path>
    <path d="M467.85 31.8561C467.85 31.6875 467.825 31.5371 467.775 31.4049C467.725 31.2682 467.633 31.1429 467.501 31.0289C467.369 30.915 467.182 30.8011 466.941 30.6871C466.699 30.5686 466.382 30.4479 465.991 30.3248C465.544 30.179 465.118 30.0149 464.712 29.8326C464.311 29.6458 463.953 29.4293 463.639 29.1832C463.324 28.9371 463.076 28.65 462.894 28.3219C462.716 27.9938 462.627 27.611 462.627 27.1735C462.627 26.7496 462.721 26.3668 462.907 26.025C463.094 25.6832 463.356 25.3916 463.694 25.15C464.031 24.9039 464.427 24.7171 464.883 24.5895C465.339 24.4573 465.84 24.3912 466.387 24.3912C467.116 24.3912 467.756 24.5211 468.308 24.7809C468.864 25.0361 469.297 25.3961 469.607 25.861C469.917 26.3212 470.072 26.8567 470.072 27.4674H467.857C467.857 27.1985 467.8 26.9615 467.686 26.7565C467.576 26.5468 467.408 26.3828 467.18 26.2643C466.957 26.1458 466.676 26.0865 466.339 26.0865C466.011 26.0865 465.735 26.1367 465.512 26.2369C465.293 26.3326 465.127 26.4648 465.013 26.6334C464.904 26.802 464.849 26.9866 464.849 27.1871C464.849 27.3466 464.89 27.4925 464.972 27.6246C465.059 27.7522 465.182 27.873 465.341 27.9869C465.505 28.0963 465.706 28.2011 465.943 28.3014C466.18 28.4017 466.451 28.4974 466.756 28.5885C467.289 28.7571 467.761 28.944 468.171 29.149C468.586 29.3541 468.935 29.5865 469.217 29.8463C469.5 30.1061 469.712 30.4 469.853 30.7281C469.999 31.0563 470.072 31.4277 470.072 31.8424C470.072 32.2845 469.985 32.6764 469.812 33.0182C469.643 33.36 469.397 33.6517 469.074 33.8932C468.754 34.1302 468.372 34.3102 467.925 34.4332C467.478 34.5563 466.979 34.6178 466.428 34.6178C465.927 34.6178 465.432 34.554 464.945 34.4264C464.457 34.2942 464.015 34.0937 463.618 33.8248C463.227 33.5559 462.912 33.2142 462.675 32.7994C462.443 32.3802 462.326 31.8834 462.326 31.3092H464.555C464.555 31.61 464.598 31.8652 464.685 32.0748C464.771 32.2799 464.894 32.4462 465.054 32.5739C465.218 32.7015 465.416 32.7926 465.649 32.8473C465.881 32.902 466.141 32.9293 466.428 32.9293C466.761 32.9293 467.03 32.8837 467.235 32.7926C467.444 32.6969 467.599 32.567 467.699 32.403C467.8 32.2389 467.85 32.0566 467.85 31.8561Z" fill="#069EDB"></path>
    <path d="M477.872 32.7584V34.4811H472.574V32.7584H477.872ZM473.333 24.528V34.4811H471.104V24.528H473.333ZM477.188 28.5338V30.2018H472.574V28.5338H477.188ZM477.878 24.528V26.2574H472.574V24.528H477.878Z" fill="#069EDB"></path>
    <path d="M486.895 24.528V34.4811H484.674L480.914 28.0485V34.4811H478.685V24.528H480.914L484.681 30.9606V24.528H486.895Z" fill="#069EDB"></path>
    <path d="M491.941 32.2731L494.155 24.528H496.637L493.226 34.4811H491.606L491.941 32.2731ZM489.924 24.528L492.132 32.2731L492.481 34.4811H490.84L487.449 24.528H489.924Z" fill="#069EDB"></path>
    <path d="M505.387 29.2858V29.7301C505.387 30.4866 505.282 31.1656 505.073 31.7672C504.868 32.3688 504.574 32.8815 504.191 33.3053C503.813 33.7291 503.361 34.055 502.837 34.2828C502.318 34.5061 501.741 34.6178 501.108 34.6178C500.474 34.6178 499.896 34.5061 499.371 34.2828C498.847 34.055 498.392 33.7291 498.004 33.3053C497.621 32.8815 497.325 32.3688 497.116 31.7672C496.906 31.1656 496.801 30.4866 496.801 29.7301V29.2858C496.801 28.5293 496.906 27.8502 497.116 27.2487C497.325 26.6425 497.619 26.1276 497.997 25.7037C498.38 25.2799 498.834 24.9563 499.358 24.733C499.882 24.5052 500.461 24.3912 501.094 24.3912C501.728 24.3912 502.306 24.5052 502.83 24.733C503.355 24.9563 503.806 25.2799 504.184 25.7037C504.567 26.1276 504.863 26.6425 505.073 27.2487C505.282 27.8502 505.387 28.5293 505.387 29.2858ZM503.138 29.7301V29.2721C503.138 28.7662 503.093 28.3196 503.001 27.9323C502.91 27.5403 502.778 27.2122 502.605 26.9479C502.432 26.6836 502.218 26.4853 501.962 26.3531C501.707 26.2164 501.418 26.1481 501.094 26.1481C500.757 26.1481 500.463 26.2164 500.212 26.3531C499.962 26.4853 499.75 26.6836 499.577 26.9479C499.408 27.2122 499.278 27.5403 499.187 27.9323C499.1 28.3196 499.057 28.7662 499.057 29.2721V29.7301C499.057 30.2314 499.1 30.678 499.187 31.0699C499.278 31.4573 499.41 31.7854 499.583 32.0543C499.757 32.3232 499.968 32.526 500.219 32.6627C500.474 32.7994 500.771 32.8678 501.108 32.8678C501.431 32.8678 501.718 32.7994 501.969 32.6627C502.224 32.526 502.439 32.3232 502.612 32.0543C502.785 31.7854 502.915 31.4573 503.001 31.0699C503.093 30.678 503.138 30.2314 503.138 29.7301Z" fill="#069EDB"></path>
    <path d="M512.968 32.7584V34.4811H507.944V32.7584H512.968ZM508.703 24.528V34.4811H506.474V24.528H508.703Z" fill="#069EDB"></path>
    <path d="M516.079 32.2731L518.294 24.528H520.775L517.364 34.4811H515.744L516.079 32.2731ZM514.062 24.528L516.27 32.2731L516.619 34.4811H514.978L511.588 24.528H514.062Z" fill="#069EDB"></path>
    <path d="M523.695 24.528V34.4811H521.473V24.528H523.695Z" fill="#069EDB"></path>
    <path d="M526.279 24.528H528.125L530.517 31.6442L532.903 24.528H534.749L531.262 34.4811H529.765L526.279 24.528ZM525.212 24.528H527.092L527.441 31.9039V34.4811H525.212V24.528ZM533.935 24.528H535.822V34.4811H533.586V31.9039L533.935 24.528Z" fill="#069EDB"></path>
    <path d="M543.964 32.7584V34.4811H538.666V32.7584H543.964ZM539.425 24.528V34.4811H537.196V24.528H539.425ZM543.28 28.5338V30.2018H538.666V28.5338H543.28ZM543.971 24.528V26.2574H538.666V24.528H543.971Z" fill="#069EDB"></path>
    <path d="M552.987 24.528V34.4811H550.766L547.006 28.0485V34.4811H544.777V24.528H547.006L550.773 30.9606V24.528H552.987Z" fill="#069EDB"></path>
    <path d="M558.785 24.528V34.4811H556.563V24.528H558.785ZM561.813 24.528V26.2574H553.596V24.528H561.813Z" fill="#069EDB"></path>
    <path d="M570.741 29.2858V29.7301C570.741 30.4866 570.636 31.1656 570.426 31.7672C570.221 32.3688 569.927 32.8815 569.545 33.3053C569.166 33.7291 568.715 34.055 568.191 34.2828C567.672 34.5061 567.095 34.6178 566.462 34.6178C565.828 34.6178 565.249 34.5061 564.725 34.2828C564.201 34.055 563.745 33.7291 563.358 33.3053C562.975 32.8815 562.679 32.3688 562.469 31.7672C562.26 31.1656 562.155 30.4866 562.155 29.7301V29.2858C562.155 28.5293 562.26 27.8502 562.469 27.2487C562.679 26.6425 562.973 26.1276 563.351 25.7037C563.734 25.2799 564.187 24.9563 564.712 24.733C565.236 24.5052 565.814 24.3912 566.448 24.3912C567.081 24.3912 567.66 24.5052 568.184 24.733C568.708 24.9563 569.159 25.2799 569.538 25.7037C569.921 26.1276 570.217 26.6425 570.426 27.2487C570.636 27.8502 570.741 28.5293 570.741 29.2858ZM568.492 29.7301V29.2721C568.492 28.7662 568.446 28.3196 568.355 27.9323C568.264 27.5403 568.132 27.2122 567.959 26.9479C567.785 26.6836 567.571 26.4853 567.316 26.3531C567.061 26.2164 566.771 26.1481 566.448 26.1481C566.111 26.1481 565.817 26.2164 565.566 26.3531C565.315 26.4853 565.103 26.6836 564.93 26.9479C564.762 27.2122 564.632 27.5403 564.541 27.9323C564.454 28.3196 564.411 28.7662 564.411 29.2721V29.7301C564.411 30.2314 564.454 30.678 564.541 31.0699C564.632 31.4573 564.764 31.7854 564.937 32.0543C565.11 32.3232 565.322 32.526 565.573 32.6627C565.828 32.7994 566.124 32.8678 566.462 32.8678C566.785 32.8678 567.072 32.7994 567.323 32.6627C567.578 32.526 567.792 32.3232 567.965 32.0543C568.139 31.7854 568.269 31.4573 568.355 31.0699C568.446 30.678 568.492 30.2314 568.492 29.7301Z" fill="#069EDB"></path>
    <rect x="178.42" y="0.570923" width="1" height="79.8404" fill="#D9D9D9"></rect>
  </g>
  <defs>
    <clipPath id="clip0_12_73">
      <rect width="579" height="80" fill="white" transform="translate(0.358704 0.570923)"></rect>
    </clipPath>
    <clipPath id="clip1_12_73">
      <rect width="146" height="42" fill="white" transform="translate(11 23.8014)"></rect>
    </clipPath>
    <clipPath id="clip2_12_73">
      <rect width="32" height="32" fill="white" transform="translate(364 24)"></rect>
    </clipPath>
  </defs>
</svg>
