<?xml version="1.0" encoding="utf-8"?>
<!-- Generator: Adobe Illustrator 26.2.1, SVG Export Plug-In . SVG Version: 6.00 Build 0)  -->
<svg version="1.1" id="Camada_1" xmlns="http://www.w3.org/2000/svg" xmlns:xlink="http://www.w3.org/1999/xlink" x="0px" y="0px"
	 viewBox="0 0 600 600" style="enable-background:new 0 0 600 600;" xml:space="preserve">
<style type="text/css">
	.st0{fill:#FFFFFF;}
	.st1{fill:#F6D44D;}
	.st2{fill:#90D5AC;}
	.st3{fill:#1ECAD3;}
	.st4{fill:#007960;}
</style>
<g>
	<path class="st0" d="M169.3,169.3L169.3,169.3c0,0.1,0,0.1,0,0.2V169.3z"/>
	<path class="st0" d="M178.3,58.6c0.1-0.7,0.3-1.2,0.8-1.5l8.9-5.2c0.7-0.4,1.3-0.3,1.7,0.5l29.4,50.8c0.4,0.7,0.3,1.3-0.5,1.7
		l-6.5,3.7c-0.7,0.4-1.3,0.3-1.7-0.5l-21.9-37.9l0.7,46.9c0,0.5-0.2,0.8-0.5,1c-0.3,0.2-0.7,0.2-1.1-0.1l-40.3-23.9l21.9,37.9
		c0.4,0.7,0.3,1.3-0.5,1.7l-6.4,3.7c-0.7,0.4-1.3,0.3-1.7-0.5l-29.4-50.8c-0.4-0.7-0.3-1.3,0.5-1.7l8.9-5.2c0.5-0.3,1-0.2,1.7,0.1
		l36.9,22.3L178.3,58.6z"/>
	<path class="st0" d="M235.5,89c2.9,2,6.2,2.6,9.8,1.7c3.6-0.9,6.2-2.9,7.8-6.1c1.7-3.2,2-6.7,1-10.6c-1-3.8-2.9-6.8-5.9-8.8
		c-3-2-6.2-2.5-9.8-1.6c-3.6,0.9-6.2,2.9-7.8,6.1c-1.6,3.2-2,6.7-1,10.5C230.5,84.1,232.5,87,235.5,89 M249.2,54.4
		c-0.2-0.8,0.1-1.3,0.9-1.5l6.9-1.7c0.8-0.2,1.3,0.1,1.5,0.9l9.9,39.1c0.2,0.8-0.1,1.3-0.9,1.5l-6.9,1.7c-0.8,0.2-1.3-0.1-1.5-0.9
		l-1.1-4.4c-2.2,5.4-6.1,8.9-11.9,10.3c-5.6,1.4-10.9,0.5-15.9-2.7c-5.1-3.2-8.4-8-9.9-14.2c-1.6-6.2-0.9-11.9,2-17.2
		c2.9-5.2,7.2-8.6,12.7-10c5.8-1.5,11-0.3,15.4,3.5L249.2,54.4z"/>
	<path class="st0" d="M286.1,79.5c2.4,2.6,5.5,3.8,9.2,3.7c3.7-0.1,6.6-1.5,9-4.3c2.3-2.7,3.4-6.1,3.3-10.1c-0.1-4-1.4-7.2-3.9-9.8
		c-2.5-2.6-5.6-3.8-9.2-3.7c-3.7,0.1-6.6,1.6-8.9,4.3c-2.3,2.7-3.3,6.1-3.2,10C282.3,73.6,283.6,76.9,286.1,79.5 M306.2,26.8
		c0-0.8,0.4-1.3,1.2-1.3l7.1-0.2c0.8,0,1.3,0.4,1.3,1.2l2,62.2c0,0.8-0.4,1.3-1.2,1.3l-7.1,0.2c-0.8,0-1.3-0.4-1.3-1.2l-0.2-4.5
		c-3.3,4.8-7.9,7.4-13.9,7.6c-5.7,0.2-10.7-1.8-15-6.1c-4.2-4.2-6.5-9.6-6.7-16c-0.2-6.4,1.7-11.8,5.6-16.3c4-4.5,8.8-6.9,14.5-7
		c6-0.2,10.8,2,14.3,6.7L306.2,26.8z"/>
	<path class="st0" d="M349.9,58.9c-2.9-0.5-5.6,0-7.9,1.5c-2.4,1.5-4.2,3.6-5.4,6.5l22.6,3.8c0-3-0.9-5.6-2.6-7.8
		C354.9,60.6,352.6,59.3,349.9,58.9 M351.3,50.2c5.9,1,10.4,4,13.7,8.9c3.2,5,4.2,10.9,2.9,17.7c-0.1,0.8-0.6,1.2-1.4,1l-31.2-5.2
		c-0.2,3.6,0.6,6.6,2.6,9.2c1.9,2.6,4.6,4.1,7.9,4.7c4.7,0.8,8.9-0.3,12.5-3.2c0.7-0.5,1.3-0.4,1.7,0.3l3.5,5.4
		c0.4,0.6,0.3,1.2-0.3,1.8c-5.7,4.1-12.1,5.5-19.2,4.4c-6.1-1-10.9-4-14.4-9c-3.5-5-4.7-10.6-3.6-16.9c1-6.3,4-11.3,8.9-15
		C339.8,50.5,345.3,49.2,351.3,50.2"/>
	<path class="st0" d="M389.5,51.8c-1.6-0.5-2.7-1.4-3.5-2.9c-0.7-1.4-0.9-2.9-0.4-4.5c0.5-1.5,1.4-2.7,2.8-3.4
		c1.4-0.7,2.9-0.9,4.5-0.4c1.5,0.5,2.7,1.4,3.4,2.8c0.7,1.4,0.9,2.9,0.4,4.4c-0.5,1.6-1.5,2.7-2.9,3.5
		C392.5,52.2,391.1,52.3,389.5,51.8 M370.7,99.9c-0.8-0.3-1.1-0.8-0.8-1.6l12.1-38.5c0.2-0.8,0.8-1.1,1.6-0.8l6.8,2.1
		c0.8,0.2,1.1,0.8,0.8,1.6L379,101.2c-0.3,0.8-0.8,1.1-1.6,0.8L370.7,99.9z"/>
	<path class="st0" d="M424.3,73.3c1.2,0.5,2.4,1.3,3.5,2.4c0.5,0.6,0.6,1.1,0.1,1.8l-4.1,5.2c-0.5,0.7-1.1,0.7-1.7-0.1
		c-0.8-0.8-1.7-1.4-2.6-1.8c-2.5-1.1-4.9-1-7.1,0.3c-2.3,1.3-4.2,3.6-5.7,7.1l-8.9,20.4c-0.3,0.8-0.9,1-1.6,0.6l-6.5-2.8
		c-0.8-0.3-1-0.9-0.6-1.6l16.1-37c0.3-0.8,0.9-1,1.6-0.6l6.5,2.8c0.8,0.3,1,0.9,0.6,1.6l-2.1,4.9C415.9,72.5,420.1,71.4,424.3,73.3"
		/>
	<path class="st0" d="M427.1,111.8c0.5,3.5,2.3,6.3,5.4,8.3c3.1,2,6.3,2.5,9.8,1.6c3.5-0.9,6.3-3.1,8.5-6.4c2.2-3.3,3-6.8,2.4-10.3
		c-0.5-3.5-2.4-6.3-5.4-8.3c-3.1-2-6.3-2.5-9.8-1.6c-3.4,0.9-6.2,3.1-8.4,6.4C427.4,104.8,426.6,108.3,427.1,111.8 M461.8,98.4
		c0.5-0.7,1-0.8,1.7-0.4l5.9,3.9c0.7,0.4,0.8,1,0.4,1.7l-22,33.8c-0.5,0.7-1,0.8-1.7,0.4l-5.9-3.9c-0.7-0.5-0.8-1-0.4-1.7l2.5-3.8
		c-5.5,2.1-10.7,1.5-15.7-1.7c-4.8-3.1-7.7-7.6-8.8-13.6c-1.1-5.9,0.2-11.6,3.7-17c3.5-5.4,8.1-8.7,14-10.2c5.8-1.4,11.2-0.6,16,2.5
		c5.1,3.3,7.7,7.9,7.9,13.7L461.8,98.4z"/>
	<path class="st0" d="M99.1,222.4c-0.4,0.7-0.9,0.9-1.6,0.5l-5-2.5c-0.7-0.4-0.9-0.9-0.5-1.6l8.4-16.6l-47.7-24.2
		c-0.7-0.4-0.9-0.9-0.5-1.6l2.7-5.4c0.4-0.7,0.9-0.9,1.6-0.5l47.7,24.2l8.4-16.6c0.4-0.7,0.9-0.9,1.6-0.5l5,2.5
		c0.7,0.4,0.9,0.9,0.5,1.6L99.1,222.4z"/>
	<path class="st0" d="M93,233.4c0.5-2,0.2-4-1.1-6.2c-0.6-0.9-0.4-1.4,0.6-1.5L96,225c0.7-0.1,1.1,0.1,1.4,0.6
		c2.1,2.8,2.7,6,1.7,9.5c-0.6,2.3-2.2,4.7-4.8,7.2c-2.6,2.5-4.1,4.6-4.5,6.2c-0.5,1.7-0.2,3.6,0.9,5.7c0.5,0.8,0.3,1.3-0.6,1.5
		l-3.5,0.9c-0.8,0.2-1.3,0-1.5-0.6c-1.8-3.1-2.2-6.2-1.4-9.3c0.6-2.1,2.2-4.5,4.7-7C91,237.2,92.5,235.1,93,233.4 M47.4,215.4
		c-3.6,1.8-5.9,4.6-7,8.5c-1.1,3.9-0.6,7.5,1.6,10.9c2.1,3.4,5.4,5.7,9.7,6.9c4.3,1.2,8.2,0.9,11.8-0.9s6-4.6,7.1-8.5
		c1.1-3.9,0.6-7.6-1.6-10.9c-2.2-3.4-5.4-5.7-9.6-6.8C54.9,213.4,51,213.7,47.4,215.4 M71.5,247.4c0.8,0.2,1,0.7,0.8,1.5l-1.6,5.6
		c-0.2,0.8-0.7,1-1.5,0.8l-39.8-11.1c-0.8-0.2-1-0.7-0.8-1.5l1.6-5.6c0.2-0.8,0.7-1,1.5-0.8l5,1.4c-3.9-4.9-5-10.3-3.3-16.4
		c1.6-5.7,5.1-10,10.5-12.9c5.4-2.9,11.3-3.5,17.6-1.7c6.2,1.7,10.9,5.3,14.1,10.5c3.1,5.3,3.9,10.8,2.3,16.5
		c-1.7,6.1-5.5,10.2-11.5,12.3L71.5,247.4z"/>
	<path class="st0" d="M30.3,285.2c-0.2,4,1.1,7.5,3.9,10.3c2.8,2.8,6.4,4.3,10.9,4.5c4.4,0.2,8.1-0.9,11.2-3.4
		c3.1-2.5,4.7-5.8,4.9-9.9c0.2-4.1-1.1-7.6-3.9-10.4c-2.8-2.8-6.4-4.3-10.8-4.5c-4.5-0.2-8.3,0.9-11.3,3.4
		C32.1,277.8,30.5,281.1,30.3,285.2 M28.6,301.1c-4.3-4.6-6.2-10-5.9-16.3c0.3-6.3,2.8-11.5,7.5-15.7c4.7-4.2,10.3-6.1,16.8-5.8
		c6.4,0.3,11.7,2.8,16,7.4c4.3,4.6,6.2,10.1,5.9,16.4c-0.3,6.2-2.8,11.4-7.5,15.6c-4.7,4.2-10.3,6.1-16.7,5.8
		C38.2,308.2,32.9,305.7,28.6,301.1"/>
	<path class="st0" d="M40.3,362.4c0.7,0.6,0.6,1.2-0.1,1.7l-4,2.9c-0.6,0.4-1.2,0.4-1.7-0.1c-3.5-3.4-5.7-7.6-6.6-12.5
		c-0.9-4.8-0.2-8.7,2-11.7c2.2-3,5.8-4.9,10.8-5.9l21.7-4l-1.3-7.2c-0.1-0.8,0.2-1.2,0.9-1.4l4.6-0.9c0.8-0.1,1.2,0.2,1.4,0.9
		l1.3,7.2l12.7-2.4c0.8-0.1,1.2,0.2,1.4,0.9l1.1,5.7c0.1,0.8-0.2,1.2-0.9,1.4L71,339.6l2.7,14.4c0.1,0.8-0.2,1.2-0.9,1.4l-4.6,0.9
		c-0.8,0.1-1.2-0.2-1.4-0.9L64,340.8l-19.8,3.7c-3.3,0.6-5.7,1.6-7.3,3c-1.6,1.4-2.1,3.5-1.6,6.3C35.9,356.8,37.6,359.7,40.3,362.4"
		/>
	<path class="st0" d="M85.1,391.4c0.7-0.3,1.2-0.1,1.5,0.7l2.1,5.4c0.3,0.7,0.1,1.2-0.7,1.5l-38.6,14.7c-0.7,0.3-1.2,0.1-1.5-0.7
		l-2.1-5.4c-0.3-0.7-0.1-1.2,0.7-1.5l5.9-2.3c-3.1-0.2-5.7-1.1-8.1-2.9c-2.3-1.7-4-4-5.1-6.8c-1.6-4.1-1.6-8-0.2-11.6
		c1.5-3.7,4.9-6.5,10.3-8.6l25.3-9.6c0.7-0.3,1.2-0.1,1.5,0.7l2.1,5.4c0.3,0.7,0,1.2-0.7,1.5l-24,9.2c-3.6,1.4-5.9,3.1-6.9,5.1
		c-1,2-1,4.5,0.1,7.3c1.1,2.8,3,4.8,5.7,6.1c2.8,1.3,6.1,1.4,10.1,0.3L85.1,391.4z"/>
	<path class="st0" d="M71.9,435.4c-1,3.9-0.4,7.5,1.9,10.9c2.2,3.4,5.3,5.4,9.3,5.9c3.9,0.6,7.8-0.4,11.5-2.9c3.7-2.5,6-5.6,7.1-9.5
		c1-3.9,0.4-7.5-1.8-10.9c-2.2-3.4-5.4-5.4-9.3-5.9c-4-0.6-7.8,0.4-11.5,2.8C75.3,428.4,72.9,431.6,71.9,435.4 M111.8,438
		c0.7-0.4,1.2-0.3,1.6,0.3l3.2,4.8c0.4,0.7,0.3,1.2-0.3,1.6l-34.4,22.9c-0.7,0.4-1.2,0.3-1.6-0.3l-3.2-4.8c-0.4-0.7-0.3-1.2,0.3-1.6
		l4.3-2.9c-6.3-0.2-11.1-2.9-14.6-8.2c-3.3-4.9-4.2-10.4-2.9-16.4c1.4-6,4.8-10.8,10.2-14.4c5.4-3.6,11.1-4.8,17.2-3.8
		c6.1,1.1,10.7,4.1,14,9c3.5,5.3,4.1,10.9,1.8,16.7L111.8,438z"/>
	<path class="st0" d="M107.3,498.7c-1.6-1.5-2.4-3.4-2.4-5.5c0-2.2,0.7-4,2.1-5.6c1.5-1.6,3.4-2.4,5.5-2.4c2.2,0,4,0.7,5.6,2.2
		c1.5,1.5,2.3,3.3,2.4,5.4c0,2.1-0.7,4-2.2,5.6c-1.5,1.5-3.3,2.3-5.4,2.4C110.7,500.9,108.8,500.2,107.3,498.7"/>
	<path class="st0" d="M207.7,492.7c0.8,0.5,1,1.2,0.5,2l-4.5,7.3c-0.5,0.8-1.2,1-2,0.5l-14.7-9.1l-26.1,42.3c-0.5,0.8-1.2,1-2,0.5
		l-8-4.9c-0.8-0.5-1-1.2-0.5-2l26.1-42.3l-14.7-9.1c-0.8-0.5-1-1.2-0.5-2l4.5-7.3c0.5-0.8,1.2-1,2-0.5L207.7,492.7z"/>
	<path class="st0" d="M218.9,501.7c-1.9-0.7-3.8-0.6-5.9,0.2c-1.1,0.5-1.7,0.2-1.8-0.9l-0.5-5.2c-0.1-0.9,0.2-1.5,0.9-1.8
		c3.4-1.7,6.7-2,9.9-0.8c2.2,0.8,4.5,2.5,6.9,5.2c2.4,2.7,4.4,4.3,5.8,4.8c1.7,0.6,3.6,0.6,5.5-0.1c1.1-0.5,1.7-0.2,1.8,1l0.7,5.3
		c0,0.8-0.3,1.4-0.9,1.8c-3.2,1.6-6.4,1.8-9.6,0.6c-2.1-0.7-4.3-2.5-6.8-5.2C222.4,503.9,220.4,502.3,218.9,501.7 M206.6,548.8
		c3.2,1.2,6.2,1,9.1-0.5c2.9-1.5,4.9-3.9,6.2-7.4c1.3-3.4,1.3-6.6,0.1-9.7c-1.2-3-3.4-5.1-6.6-6.3c-3.1-1.1-6.1-1-9,0.6
		c-2.9,1.5-5,4-6.2,7.4c-1.2,3.4-1.3,6.6,0,9.6S203.5,547.7,206.6,548.8 M229,521.6c0.3-0.9,1-1.2,1.9-0.9l8.4,3.1
		c0.9,0.3,1.2,1,0.9,1.9l-14.2,38.7c-0.3,0.9-1,1.2-1.9,0.9l-8.4-3.1c-0.9-0.3-1.2-1-0.9-1.9l1.3-3.7c-4.7,3.1-9.8,3.6-15.4,1.5
		c-5.4-2-9.3-5.8-11.7-11.4c-2.4-5.6-2.4-11.6-0.2-17.8c2.3-6.2,6.2-10.7,11.6-13.5c5.5-2.8,10.9-3.2,16.3-1.2
		c5.5,2,9.1,5.7,10.7,11.2L229,521.6z"/>
	<path class="st0" d="M259,559.1c1.9,2.6,4.5,4.1,7.8,4.6c3.3,0.4,6.2-0.4,8.6-2.5c2.5-2.1,3.9-4.9,4.4-8.5c0.5-3.6-0.2-6.7-2.1-9.4
		c-1.9-2.6-4.5-4.2-7.8-4.6c-3.3-0.4-6.2,0.4-8.7,2.5c-2.5,2.1-3.9,5-4.4,8.6C256.4,553.3,257.1,556.4,259,559.1 M283,569.7
		c-5,3.9-10.9,5.4-17.6,4.6c-6.7-0.8-12-3.8-15.9-8.8c-3.9-5-5.5-10.8-4.6-17.3c0.8-6.5,3.8-11.7,8.8-15.6c5-3.9,10.9-5.5,17.6-4.6
		c6.7,0.8,12,3.8,15.9,8.9c3.9,5.1,5.4,10.9,4.6,17.4C290.9,560.6,288,565.8,283,569.7"/>
	<path class="st0" d="M333.2,574.5c-7.6,0.9-13.9-0.4-19.1-4.1c-0.8-0.5-0.9-1.1-0.4-2l3.5-6.5c0.5-1,1.1-1.1,2-0.2
		c3.4,3.1,7.8,4.4,13.2,3.7c5.3-0.7,7.7-2.6,7.4-5.8c-0.2-1.6-1-2.6-2.5-3c-1.5-0.4-3.9-0.6-7.3-0.7c-11.3-0.3-17.4-4.3-18.3-12.1
		c-0.5-3.8,0.6-7.2,3.2-10.1c2.6-3,6.5-4.8,11.8-5.4c7.2-0.9,13.3,0.4,18.3,3.8c0.7,0.6,0.9,1.3,0.4,2.1l-3.7,5.9
		c-0.6,0.9-1.2,1-2.1,0.3c-3.2-2.6-7.1-3.7-11.6-3.1c-4.5,0.6-6.5,2.2-6.2,4.8c0.2,1.3,0.9,2.3,2.3,2.9c1.4,0.6,3.6,0.9,6.9,0.9
		c2,0.1,3.7,0.1,5.1,0.3c1.4,0.1,2.9,0.4,4.7,0.9c1.8,0.5,3.2,1.1,4.4,1.9c1.1,0.8,2.2,2,3.1,3.5c0.9,1.5,1.5,3.3,1.8,5.5
		c0.6,4.7-0.8,8.5-4,11.4C342.7,572.1,338.5,573.9,333.2,574.5"/>
	<path class="st0" d="M380.7,518.3c-0.3-0.9,0-1.5,0.9-1.8l8.5-2.8c0.9-0.3,1.5,0,1.8,0.9l12.8,39.1c0.3,0.9,0,1.5-0.9,1.8l-8.5,2.8
		c-0.9,0.3-1.5,0-1.8-0.9l-1.5-4.7c-1,5.8-4.5,9.6-10.5,11.6c-4.1,1.4-8,1.2-11.5-0.4c-3.5-1.7-6.2-5.3-8-10.9l-8.4-25.7
		c-0.3-0.9,0-1.5,0.9-1.8l8.5-2.8c0.9-0.3,1.5,0,1.8,0.9l7.7,23.5c1,3.2,2.4,5.3,4,6.3c1.6,1,3.6,1.1,5.9,0.3c2.3-0.8,4-2.2,5.2-4.3
		c1.2-2.1,1.4-4.7,0.7-7.8L380.7,518.3z"/>
	<path class="st0" d="M436.4,540.8c-6.7,3.8-13.1,4.9-19.2,3.4c-0.9-0.1-1.3-0.7-1.1-1.7l0.8-7.3c0.1-1.1,0.7-1.4,1.7-1
		c4.4,1.6,8.9,1,13.6-1.6c4.6-2.6,6.2-5.3,4.6-8.1c-0.8-1.4-2-2-3.5-1.9c-1.5,0.2-3.8,0.9-7,2.1c-10.5,4.1-17.7,2.6-21.6-4.2
		c-1.9-3.3-2.2-6.9-0.9-10.6c1.3-3.7,4.2-6.9,8.9-9.5c6.3-3.6,12.5-4.7,18.4-3.5c0.9,0.3,1.3,0.8,1.2,1.7l-1.1,6.9
		c-0.2,1-0.8,1.4-1.8,1.1c-4-1.2-8-0.7-12,1.5c-3.9,2.2-5.2,4.5-3.9,6.8c0.7,1.2,1.7,1.8,3.2,1.8c1.5,0,3.7-0.6,6.7-1.8
		c1.9-0.7,3.5-1.3,4.8-1.7c1.3-0.4,2.8-0.7,4.7-1c1.8-0.2,3.4-0.2,4.8,0.1c1.4,0.3,2.8,1,4.2,2.1c1.4,1.1,2.7,2.5,3.7,4.4
		c2.3,4.1,2.5,8.1,0.6,12.1S441,538.2,436.4,540.8"/>
	<path class="st0" d="M478.6,494.4c0.4-1.1,1-1.4,1.9-0.8l6.5,3.6c0.8,0.4,1,1,0.8,1.8c-1.3,4.6-4.2,8.7-8.5,12.2
		c-8.3,6.7-16,5.7-23.2-3.2L444.8,494l-4.4,3.6c-0.8,0.6-1.4,0.5-2-0.2l-4.7-5.8c-0.6-0.8-0.5-1.4,0.2-2.1l4.4-3.6l-7.7-9.5
		c-0.6-0.7-0.5-1.4,0.2-2l6.9-5.6c0.8-0.6,1.4-0.5,2,0.2l7.7,9.5l10-8.1c0.7-0.6,1.4-0.5,2,0.2l4.7,5.8c0.6,0.8,0.5,1.4-0.2,2
		l-10,8.1l10.2,12.5c1.7,2.1,3.3,3.4,5,3.9c1.6,0.6,3.4,0.1,5.3-1.5C476.4,499.8,477.8,497.4,478.6,494.4"/>
	<path class="st0" d="M484.7,454.9c-1.7,1.9-2.5,4.1-2.5,6.5c0,2.4,0.7,4.7,2.2,6.8l13.2-15.6c-2.4-1.1-4.7-1.5-7.1-1.2
		C488.3,451.9,486.3,453,484.7,454.9 M476.5,447.9c4.1-4.8,9.2-7.4,15.4-7.8c6.1-0.3,11.9,1.9,17.4,6.6c0.7,0.7,0.7,1.4,0.1,2.1
		l-20.4,24c2.6,1.6,5.3,2.3,8.2,1.9c2.8-0.4,5.3-1.7,7.2-4c2.9-3.4,4.2-7.3,3.8-11.8c-0.1-1,0.3-1.5,1.3-1.5l8.1-0.3
		c0.9-0.1,1.4,0.4,1.5,1.4c0.2,7.3-2,13.8-6.9,19.4c-4.2,4.9-9.4,7.7-15.7,8.2c-6.3,0.5-11.9-1.3-16.9-5.6c-5-4.3-7.9-9.6-8.5-15.9
		S472.3,452.9,476.5,447.9"/>
	<path class="st0" d="M506.4,402.9c2.1-4,5.1-6.6,8.8-7.9c3.7-1.3,8.2-0.5,13.5,2.3l23.8,12.8c0.9,0.5,1,1.1,0.6,2l-4.2,7.8
		c-0.4,0.9-1.1,1-2,0.6l-21.8-11.7c-2.9-1.6-5.3-2.1-7.2-1.7c-1.9,0.4-3.4,1.8-4.6,4c-1.2,2.3-1.6,4.6-1,7c0.6,2.4,2.2,4.4,4.9,6.2
		l21.5,11.6c0.9,0.5,1,1.1,0.6,2l-4.2,7.9c-0.5,0.9-1.1,1-2,0.6l-36.3-19.5c-0.9-0.5-1-1.1-0.6-2l4.2-7.9c0.5-0.9,1.1-1,2-0.6
		l4.4,2.4C503.5,413.8,503.4,408.5,506.4,402.9"/>
	<path class="st0" d="M557.1,363c-0.3-1.1,0.1-1.7,1.1-1.8l7.4-0.6c0.9-0.1,1.4,0.2,1.7,1.1c1.4,4.6,1.3,9.5-0.4,14.8
		c-3.2,10.2-10.2,13.6-21.2,10.1l-17.1-5.3l-1.7,5.5c-0.3,0.9-0.9,1.2-1.8,0.9l-7.1-2.2c-0.9-0.3-1.2-0.9-1-1.8l1.7-5.5l-11.7-3.7
		c-0.9-0.3-1.2-0.9-1-1.8l2.7-8.5c0.3-0.9,0.9-1.2,1.8-0.9l11.7,3.7l3.9-12.3c0.3-0.9,0.9-1.2,1.8-1l7.1,2.2
		c0.9,0.3,1.2,0.9,0.9,1.8l-3.9,12.3l15.4,4.8c2.5,0.8,4.6,1,6.3,0.5c1.7-0.4,2.9-1.8,3.6-4.1C558.2,368.7,558.1,366,557.1,363"/>
	<path class="st0" d="M565.6,328.7c0.4-3.4-0.5-6.3-2.7-8.7c-2.1-2.4-5-3.8-8.6-4.2c-3.6-0.4-6.7,0.4-9.4,2.3
		c-2.6,1.9-4.1,4.6-4.5,7.9c-0.4,3.3,0.6,6.2,2.7,8.6c2.2,2.4,5.1,3.8,8.7,4.2c3.6,0.4,6.7-0.4,9.3-2.3
		C563.8,334.6,565.3,332,565.6,328.7 M533.8,313.6c-1-0.1-1.4-0.6-1.3-1.6l0.9-8.9c0.1-1,0.6-1.4,1.6-1.3l40.9,4.4
		c1,0.1,1.4,0.6,1.3,1.6l-0.9,8.9c-0.1,1-0.6,1.4-1.6,1.3l-3.9-0.4c4.1,3.8,5.8,8.6,5.2,14.5c-0.6,5.7-3.4,10.4-8.3,14.1
		c-4.9,3.7-10.6,5.2-17.2,4.5c-6.6-0.7-11.9-3.4-15.9-8c-4.1-4.6-5.8-9.8-5.2-15.5c0.6-5.8,3.4-10.2,8.3-13.1L533.8,313.6z
		 M509.5,306.8c0.1-0.6,0.3-1,0.6-1.1c0.3-0.1,0.8,0,1.2,0.4l12.3,11.4c0.6,0.5,0.8,1.1,0.7,1.8l-0.7,6.7c-0.1,0.5-0.3,0.9-0.6,1
		c-0.3,0.1-0.7,0.1-1.2-0.2l-12.5-9c-0.6-0.4-0.9-1-0.8-1.8L509.5,306.8z"/>
	<path class="st0" d="M531.2,262.5c-0.8-0.2-1.3-0.7-1.4-1.5l-1-9.3c-0.1-1.1,0.4-1.6,1.5-1.4l42.7,11c0.8,0.2,1.3,0.7,1.4,1.6
		l1.3,11.4c0.1,0.8-0.2,1.5-1,1.8l-39.3,20c-1,0.5-1.6,0.2-1.8-1l-1-9.3c-0.1-0.8,0.2-1.4,1-1.8l30.5-14.3L531.2,262.5z"/>
	<path class="st0" d="M530.3,224.2c0.8,2.4,2.2,4.3,4.2,5.6c2,1.3,4.4,1.9,7,1.7l-6.2-19.5c-2.2,1.4-3.8,3.2-4.7,5.4
		C529.6,219.6,529.5,221.9,530.3,224.2 M520,227.5c-1.9-6.1-1.4-11.8,1.5-17.1c3-5.4,7.9-9.1,14.9-11.3c1-0.2,1.6,0.2,1.9,1l9.6,30
		c2.8-1.3,4.7-3.3,5.9-5.9c1.2-2.6,1.3-5.4,0.4-8.2c-1.4-4.3-4-7.4-8-9.5c-0.9-0.5-1.1-1.1-0.6-1.9l4.1-7c0.4-0.8,1.1-1,2-0.5
		c6.3,3.7,10.6,9,12.9,16.1c2,6.2,1.5,12.1-1.3,17.7c-2.9,5.6-7.4,9.4-13.6,11.4c-6.3,2-12.3,1.6-18-1.2
		C525.8,238.2,521.9,233.7,520,227.5"/>
	<path class="st0" d="M492.2,209.6c-0.9,0.4-1.5,0.2-1.9-0.7l-4-8c-0.4-0.9-0.2-1.5,0.7-1.9l56.8-28.2c0.9-0.4,1.5-0.2,1.9,0.7l4,8
		c0.4,0.9,0.2,1.5-0.7,1.9L492.2,209.6z"/>
	<path class="st1" d="M422.6,214.1C404.2,264,356,300,300,300c0-71.7,59-130.7,130.7-130.7l0,0v0H169.3v0
		c71.7,0,130.7,59,130.7,130.7c-56,0-104.3-36-122.7-85.9c18.4,49.9,66.6,85.9,122.5,85.9h0.3C356.1,299.9,404.2,264,422.6,214.1"/>
	<path class="st2" d="M430.6,169.4L430.6,169.4c0,11.2-1.4,22.1-4.1,32.5c-1.1,4.2-2.4,8.2-3.8,12.2
		c-18.4,49.9-66.6,85.9-122.5,85.9c-0.1,0-0.1,0-0.2,0c0,71.7,59,130.7,130.7,130.7c11.3,0,22.6-1.5,33.6-4.4L430.6,169.4z"/>
	<path class="st3" d="M299.8,300c-55.9-0.1-104.1-36.1-122.5-85.9c-1.5-4-2.8-8.1-3.8-12.2c-2.7-10.4-4.1-21.2-4.1-32.3
		c0-0.1,0-0.1,0-0.2c0,0-33.6,257-33.6,257c11,2.9,22.2,4.4,33.6,4.4c71.7,0,130.7-59,130.7-130.7C299.9,300,299.9,300,299.8,300"/>
	<path class="st2" d="M173.4,201.8c1.1,4.2,2.4,8.2,3.8,12.2C195.7,264,244,300,300,300c0-71.7-59-130.7-130.7-130.7v0.2
		C169.3,180.6,170.8,191.5,173.4,201.8"/>
	<path class="st4" d="M300,300c56,0,104.2-36,122.7-85.9c1.5-4,2.8-8.1,3.8-12.2c2.7-10.4,4.1-21.3,4.1-32.5
		C358.9,169.4,300,228.3,300,300"/>
</g>
</svg>
