<svg xmlns="http://www.w3.org/2000/svg" width="811" height="230" viewBox="0 0 811 230">
    <g fill="none" fill-rule="evenodd">
        <g fill="#000" fill-rule="nonzero">
            <g>
                <path d="M297.81 54.936c29.33 0 44.93 14.58 44.93 38 0 18.82-11.87 32-33.15 35.43l34.08 45.24h-33.74l-31.28-44.42h-8.24v44.42h-28.28V54.936h55.68zm-27.4 25.67v24.75h27c10.17 0 16.45-4 16.45-12.46s-6.39-12.29-16.39-12.29h-27.06zM452.73 173.606L361.85 173.606 361.85 54.936 452.41 54.936 452.41 80.456 390.17 80.456 390.17 100.966 448.75 100.966 448.75 126.396 390.17 126.396 390.17 148.106 452.73 148.106zM524.32 54.936c37.13 0 61.63 23.57 61.63 59.34s-24.54 59.33-61.63 59.33h-50.78V54.936h50.78zm-22.46 26.2v66.29h21.87c22 0 32.64-14 32.64-33.15 0-19.41-10.6-33.14-32.64-33.14h-21.87zM691.53 173.606L600.66 173.606 600.66 54.936 691.2 54.936 691.2 80.456 628.97 80.456 628.97 100.966 687.55 100.966 687.55 126.396 628.97 126.396 628.97 148.106 691.53 148.106zM795.17 88.606c-8.48-5.09-20.09-10-34-10-10.76 0-18.65 3.65-18.65 10.68 0 7.46 11.28 9.24 24.42 11.53l4.92.85c23.06 4 37.55 14.75 37.55 34.16 0 28.23-24.33 40-49.76 40-19.75 0-39.08-5.17-52.22-15.09l14.15-23.06c9.08 6.19 21.62 12.46 38.32 12.46 10.69 0 18.82-3.64 18.82-11 0-7.12-8-9.16-23.48-11.53l-5.93-.93c-24.42-3.82-37.64-14.84-37.22-36.2.43-23.06 20.09-37.64 47.81-37.64 16 0 29.93 2.63 47.9 12.55l-12.63 23.22zM174.25 100.166H213.82V128.476H174.25zM95.65 228.216c-1.43 0-2.85 0-4.28-.07-25.14-.77-47.3-8.23-62.4-21-18-15.25-28-35.76-28-57.74-.005-11.866 2.932-23.548 8.55-34C3.282 104.456 0 92.07 0 79.466c0-22.2 10-42.91 28.28-58.32 31.38-26.52 88.66-26.26 122.48-9.38l-13.93 27.9c-23.88-11.93-67.72-12.21-88.43 5.29-11.11 9.39-17.22 21.64-17.22 34.51 0 3.193.377 6.375 1.12 9.48 17.19-13.42 36.27-20 58.2-20 15.86 0 29.6 4.66 39.73 13.46 9.65 8.206 15.268 20.193 15.4 32.86-.096 12.591-5.782 24.488-15.52 32.47-10.11 8.45-24.08 12.91-40.4 12.91-20.548.204-40.56-6.552-56.78-19.17-.52 2.595-.781 5.234-.78 7.88 0 12.65 6 24.7 16.94 33.93 9.6 8.12 25.36 13.09 43.23 13.64 17.46.54 35.09-3.26 47.17-10.16l15.46 27.07c-16.05 9.24-37.46 14.38-59.3 14.38zm-46-113.19c12.18 9.89 25 14.51 40.07 14.51 8.8 0 16-2 20.4-5.66 2.682-2.034 4.285-5.184 4.35-8.55 0-9.94-12.06-15.14-24-15.14-15.62 0-28.62 4.72-40.82 14.84z" transform="translate(-555 -425) translate(555.59 425.394)"/>
            </g>
        </g>
    </g>
</svg>
